<?xml version="1.0" encoding="UTF-8"?>
<svg width="767px" height="1005px" viewBox="0 0 767 1005" version="1.1" xmlns="http://www.w3.org/2000/svg" xmlns:xlink="http://www.w3.org/1999/xlink">
    <title>a person/bust</title>
    <g id="Page-1" stroke="none" stroke-width="1" fill="none" fill-rule="evenodd">
        <g id="Extra-Large" transform="translate(-75, -42)">
            <g id="a-person/bust" transform="translate(75, 42)">
                <g id="BODY" transform="translate(96.5335, 418.9139)" fill-rule="evenodd">
                    <path d="M654.117166,137.325179 C644.740019,138.244299 635.362872,139.162107 625.985725,140.081226 C581.075993,143.506618 536.184011,150.660277 491.618075,154.953653 C490.508463,153.150815 488.336567,153.447792 487.017916,154.7006 C482.57092,154.311843 477.586866,150.918575 473.558604,154.448203 C473.42779,154.429847 473.296977,154.408213 473.164849,154.395757 C465.992465,140.65289 461.034705,125.994837 456.222878,111.317117 C453.151723,102.293095 449.019599,93.5575277 441.383781,87.4986823 C428.352406,78.468105 398.494097,60.1558643 383.192223,60.925512 C382.938484,58.1904435 381.661247,55.3714612 379.564289,53.5502674 C384.186141,45.6839954 365.705963,40.5514807 364.402431,41.4633888 C365.237928,15.182606 352.854703,-7.64066213 325.549555,-12.8741357 C301.08746,-17.9627267 266.294399,-18.8175995 253.138127,6.70336919 C251.691949,6.54078601 236.909144,6.46395236 235.478743,6.62391322 C233.254916,3.81214218 208.832929,30.4561682 218.84245,39.7319314 C129.353636,79.2514421 78.4701083,74.5359524 53.7010297,185.635982 C50.3524712,196.072772 50.1085931,207.493584 46.5726888,217.697645 C33.9929155,247.022273 23.7894751,278.248076 21.2501186,310.156334 C15.1170108,311.72513 14.4116705,322.520522 21.5156894,324.082107 C24.2292445,324.679338 26.4984287,325.494876 28.4770626,327.041383 C26.9303099,353.189739 33.2652252,412.922009 37.2566755,412.737792 C45.3953687,438.595727 81.6982426,445.893493 107.399448,436.806536 C102.968886,445.127779 107.399448,450.359785 107.399448,454.805851 C199.87922,458.298767 300.996088,456.287136 393.450224,461.07744 C405.27667,460.909612 417.715769,463.977058 429.380507,462.211588 C436.494386,460.509054 436.506218,449.342606 429.290449,447.96196 L460.819975,441.125516 C460.115292,440.860007 473.816624,431.762062 484.171913,414.760976 C493.810687,395.742679 487.250619,372.785805 491.618075,352.098407 C525.729461,349.313515 560.404856,348.122782 594.142866,342.355669 C598.743025,356.095913 618.656234,339.663213 624.98589,333.053027 C624.978002,333.042537 624.970114,333.032704 624.962225,333.022215 C628.025493,332.185698 630.482022,329.319514 630.564192,325.926246 C632.712423,322.862078 633.163367,318.543134 631.103222,315.581892 C640.545447,261.189954 654.940173,205.65469 660.143126,150.751402 C661.9824,150.344945 663.714527,149.539896 665.183055,148.299543 L665.064074,148.180884 C667.552156,145.411725 668.035969,140.631911 663.888068,138.279044 C660.542139,136.379181 657.748387,136.968545 654.117166,137.325179 Z" id="âœ‹-Skin" fill="#D08B5B"></path>
                    <path d="M297.480634,340.900196 L304.704225,345.489237 L363.806338,364.500978 L399.924296,369.09002 L429.475352,364.500978 L429.475352,414.980431 L435.385563,462.181996 C432.758803,466.989563 407.804577,466.989563 360.522887,462.181996 C330.382047,459.117298 220.225041,457.630463 195.144688,456.976206 L193.723592,456.937378 C164.251561,456.088721 135.138298,456.088721 106.383803,456.937378 L106.383803,439.236791 L188.47007,398.590998 L262.019366,357.289628 L297.480634,340.900196 Z M255.602873,2.57764962 L261.030919,6.62391322 L249.179703,26.0618524 L306.911232,72.6803931 L306.911232,109.916554 L325.188564,127.174364 L335.635751,109.916554 L350.356753,90.3729174 L360.818409,58.6927772 L357.25636,37.8214118 L364.419728,37.1476846 C364.454386,38.5741473 364.448525,40.0135064 364.402431,41.4633888 C365.705963,40.5514807 384.186141,45.6839954 379.564289,53.5502674 C381.661247,55.3714612 382.938484,58.1904435 383.192223,60.925512 C398.494097,60.1558643 428.352406,78.468105 441.383781,87.4986823 C449.019599,93.5575277 453.151723,102.293095 456.222878,111.317117 L456.946005,113.518515 L457.692584,115.778399 L458.44479,118.036535 C462.600473,130.450145 467.087708,142.751463 473.164849,154.395757 C473.296977,154.408213 473.42779,154.429847 473.558604,154.448203 C477.586866,150.918575 482.57092,154.311843 487.017916,154.7006 C488.3059,153.476927 490.407906,153.165145 491.538961,154.831266 L491.618075,154.953653 L436.212301,165.849926 L399.660517,293.847461 L367.829018,268.053042 L350.743195,270.589648 L305.622709,286.835695 L253.144727,300.443964 L133.344506,333.41626 L118.088352,333.41626 L29.3139876,312.014734 L21.3135523,309.378444 C23.9554939,277.740611 34.0951607,246.78393 46.5726888,217.697645 C50.1085931,207.493584 50.3524712,196.072772 53.7010297,185.635982 C78.4701083,74.5359524 129.353636,79.2514421 218.84245,39.7319314 C208.832929,30.4561682 233.254916,3.81214218 235.478743,6.62391322 L235.618923,6.61177393 L235.921996,6.5955783 L236.312482,6.58197433 C239.803596,6.4806303 251.840403,6.55747561 253.138127,6.70336919 C253.890873,5.24316655 254.714451,3.86930914 255.602873,2.57764962 Z" id="ðŸ‘•-Top" fill="#AC3365"></path>
                    <path d="M662.972895,141.211638 L661.322558,150.392808 C660.930333,150.521035 660.531273,150.62962 660.127037,150.718951 C659.60836,156.192201 658.998336,161.671732 658.310979,167.155784 L648.079163,224.085787 C646.314377,234.157565 644.639047,244.250786 642.975969,254.347561 L640.772159,265.192841 L639.407342,271.93335 C636.461072,286.53073 633.598877,301.080538 631.087133,315.549441 C631.466226,316.094348 631.760292,316.685227 631.974401,317.305802 L631.78111,318.121341 L631.646718,318.665125 L631.509223,319.202277 C629.527472,326.807411 626.079175,334.182288 617.952846,336.420268 C611.823112,338.107514 605.097413,338.26043 598.767897,338.926378 L598.066298,339.002587 L487.309596,351.436922 C473.926776,352.938981 460.550261,354.486353 447.175006,356.050172 L435.58003,357.407793 C419.418728,359.276092 403.164481,360.746386 387.241182,364.128243 C386.656071,364.252803 386.171434,364.486188 385.776106,364.792998 C388.982724,352.675963 392.052094,340.574662 394.833833,328.335034 C397.964932,314.559388 400.936455,300.756863 404.285575,287.031041 C411.032409,259.378791 418.595509,231.908135 426.875059,204.673488 C428.612551,198.9574 430.390175,193.252694 432.20679,187.561266 L433.481473,183.582861 L434.462648,180.412571 C435.980769,175.578709 437.859408,170.610465 442.311217,167.944114 C447.521068,164.823372 454.62563,164.306025 460.53453,163.22678 L464.535852,162.476435 C470.52248,161.361408 476.516784,160.288719 482.518384,159.25837 C511.252518,154.324495 540.149511,150.366775 569.152888,147.393732 C599.333096,144.299619 629.61847,142.289152 659.940566,141.306481 L662.972895,141.211638 Z M388.070976,331.029495 L388.353615,331.053057 L384.216467,364.068585 C383.55518,363.606403 382.715274,363.323194 381.69018,363.325816 C368.119843,363.365704 355.111502,359.035906 342.529333,354.275871 L340.613307,353.546944 L335.271349,351.497214 C329.841289,349.420261 324.382145,347.389126 318.821293,345.704554 L316.57336,345.027321 L315.430714,344.690461 C311.220394,343.463458 306.791423,342.348093 302.411869,342.070502 L301.814988,342.03791 L303.090281,341.369877 C303.276781,341.272196 303.440296,341.162715 303.585425,341.044711 C305.996134,341.223028 308.411441,341.174515 310.954145,340.716922 C315.736163,339.85746 320.386186,338.196883 324.655985,335.884662 L326.56299,334.852823 L327.343643,334.439354 L327.859371,334.172436 L328.37224,333.913509 C332.039399,332.088571 335.545927,330.945919 340.1762,331.917764 C345.432475,333.022306 350.038688,335.850245 354.776889,338.240032 L355.617802,338.658033 L356.183168,338.930744 L356.759558,339.201392 L357.342843,339.467441 C363.750251,342.345749 373.947569,345.452177 376.404481,336.755268 C377.391487,333.261041 376.618562,329.989055 374.905914,327.120249 C378.097429,326.844479 383.798967,330.600904 388.070976,331.029495 Z M547.566299,222.25097 L547.643511,222.64709 C548.549544,227.516427 546.277418,232.174417 542.839117,235.57019 C540.018633,238.355082 535.027131,239.9029 533.613277,243.909133 C532.808175,246.188576 533.664499,248.350014 535.318045,249.857186 L534.937197,250.04496 L534.564872,250.234952 L534.201374,250.426826 L533.846951,250.620266 L533.501803,250.814979 C527.884468,254.036602 523.309833,259.275885 528.376173,265.604153 C534.123411,272.783159 546.132375,273.01577 554.593359,272.454066 L555.163347,272.414239 C563.367578,271.800096 573.086033,269.048996 577.534684,261.486472 C579.57502,258.017157 579.350432,253.821462 576.506307,250.852353 C574.790376,249.061315 571.729543,247.221765 568.922849,247.004114 C569.045651,245.425484 568.85718,243.900611 568.300964,242.613713 C567.097908,239.832098 563.896543,237.959114 560.808786,237.891589 C561.058816,231.98507 556.319967,226.154856 552.830697,221.433022 L552.474452,220.948553 L552.128656,220.472245 C550.527706,218.248527 547.102146,219.494335 547.566299,222.25097 Z M552.248173,228.537812 L555.42721,240.426051 L555.372615,240.523832 C554.252816,242.646676 557.188256,245.05643 558.929391,243.272731 L559.104685,243.08413 C561.171115,240.95355 564.343043,243.817492 564.382494,246.084994 C564.438969,249.277186 562.357361,251.745287 559.87723,253.375774 L559.703573,253.488169 L559.246314,253.771765 C557.210937,255.114623 558.751868,257.922207 560.989376,257.580542 C563.757982,257.157695 566.026846,254.965445 567.425596,252.228409 C568.920223,252.655846 570.62105,252.604055 572.195136,253.483184 C576.16163,255.697758 573.880399,259.571977 571.297462,261.913546 L571.192598,262.007627 L570.98223,262.190562 C566.243405,266.224762 559.791472,267.62613 553.709737,267.92648 L553.359293,267.942597 C547.215957,268.204828 539.212217,268.292675 533.946876,264.685689 C530.669992,262.440992 529.721075,259.257509 532.494277,256.242509 C534.062453,254.538664 535.645733,252.81974 537.275638,251.158507 C539.715242,252.320846 541.89414,251.849486 544.388906,250.749427 C544.708714,250.607822 544.531408,250.119417 544.218166,250.119417 C542.841744,250.118106 537.79114,247.567255 537.545538,245.93749 C537.318613,244.429006 540.112475,243.157268 541.471056,242.428461 L541.668143,242.320662 L541.838978,242.221677 C543.260055,241.362216 544.597733,240.361805 545.82049,239.238145 C548.923873,236.386268 551.177877,232.809351 552.162199,228.894617 L552.248173,228.537812 Z" id="ðŸ’»-Computer" fill="#707070"></path>
                    <path d="M254.842928,0.776163706 C257.629264,-6.21425704 267.048171,-3.49688913 265.998123,3.84688778 C265.369671,8.24581146 262.956334,12.8918878 260.7886,16.7473379 C259.023417,19.8855864 257.010005,22.9484435 254.280144,25.3006549 C259.139651,29.8267606 264.183688,34.1876608 269.35578,38.328287 C274.999375,42.8458702 280.933884,47.0100972 287.068026,50.8373574 C292.446975,54.1939132 298.068899,57.1676118 303.139204,60.9974944 C307.853583,64.5579347 312.148336,68.8401657 314.333801,74.4302733 C316.661911,80.3831416 315.65015,86.5308151 313.935779,92.4796656 L313.73884,93.1522498 C311.987447,99.0458897 308.955509,106.150381 313.159639,111.703121 C315.299792,114.52997 318.41119,116.532103 321.097709,118.791878 C323.485435,120.800567 325.726718,122.98495 327.782158,125.331262 C332.264068,130.446076 335.909355,136.201389 338.209741,142.614246 L338.415458,143.196847 C340.387172,148.873761 341.828169,155.828171 339.163912,161.40178 C338.399524,162.999422 335.93431,162.480205 335.506148,160.92452 C334.538186,157.400136 334.588752,153.709236 333.777083,150.135029 C332.932579,146.417905 331.527262,142.889588 329.691813,139.551389 C326.140537,133.093452 321.331021,127.577129 315.648809,122.91346 L313.947831,121.532547 C309.515054,117.900895 305.442305,114.048187 304.542551,108.037788 C303.579843,101.60723 306.160635,95.481516 307.820091,89.3951363 C308.976523,85.1535512 309.35412,81.0876608 308.104438,77.2545003 C306.577634,79.7424162 304.494612,82.1038056 302.846977,84.2101754 C299.565496,88.4065257 296.253151,92.5773085 292.949343,96.7559582 C289.562135,101.040811 286.258327,105.393189 283.112125,109.858326 C281.704838,111.85587 280.312655,113.865215 278.925068,115.876526 C277.881588,117.388287 276.426362,118.898737 275.288975,120.440655 C275.565442,121.265371 275.544428,122.215958 275.043373,122.891203 C269.011674,131.026917 260.430704,114.051399 258.192704,109.762612 C253.635274,101.028355 250.24347,91.7493144 245.670936,83.0170248 C240.932917,73.9648134 235.537551,65.1538545 229.524239,56.8896471 C225.886833,51.8908702 221.8101,47.1956255 218.482651,42.0381989 C210.643741,49.1341676 200.328452,53.8910365 190.853727,58.2047351 C180.443625,62.9436225 169.628489,66.8149476 158.955172,70.9258513 L155.802344,72.1483313 C137.411901,79.3133991 118.572041,87.1850864 103.286067,99.9119073 C85.3236213,114.867592 74.6970614,135.712328 66.7859153,157.297866 C57.6789364,182.147524 50.1447304,207.667837 43.1214294,233.171761 C39.5273642,246.221027 36.1171723,259.329295 32.9112111,272.47952 C30.0861301,284.064882 27.7443731,295.765626 24.4740561,307.231673 C31.1066266,306.997631 38.6710403,309.560939 44.3336794,310.301085 C70.1409452,313.673375 95.600822,319.049109 119.965996,328.35634 C122.975607,329.506222 123.846378,332.5068 123.191002,334.938991 C124.926634,334.449931 126.660952,333.954314 128.396584,333.467876 C126.495034,330.559199 127.402621,325.358933 127.552119,322.134992 L127.561274,321.913326 C127.71494,317.617328 128.181847,313.316741 128.484581,309.02861 C129.061054,300.854267 129.811546,292.739694 130.8094,284.612187 L131.06406,282.579999 C132.19488,273.737573 133.030847,264.843355 134.264767,256.016007 L134.410553,255.005763 C133.818875,252.747299 133.130007,250.516369 132.406991,248.295273 C130.480262,242.378688 127.760908,236.809559 125.37778,231.079158 C125.096716,230.404569 126.059424,230.017123 126.509257,230.421614 C130.545274,234.046301 133.751236,238.64452 136.326774,243.453835 C136.371429,243.227005 136.410831,242.99952 136.457456,242.77269 L136.751351,241.328586 C137.476085,237.806793 138.357619,234.101389 140.521711,231.245019 C140.752209,230.941487 141.207952,230.877896 141.425973,231.245019 C143.497174,234.743835 143.728986,239.174882 144.04748,243.156203 C144.408003,247.660019 144.453315,252.22087 144.389616,256.737142 C144.265502,265.563179 143.642303,274.414128 143.145845,283.225743 C142.658813,291.884916 141.702345,300.433753 140.469704,309.0078 L140.235394,310.615763 C139.632826,314.696786 139.139515,318.828489 138.344736,322.881602 L138.120195,323.98495 C137.695317,325.99495 137.433954,328.829011 136.588137,331.183189 C158.349535,325.123688 180.144424,319.202514 201.980685,313.385577 C217.762919,309.180704 233.56157,305.038766 249.353655,300.870606 C250.186995,299.371301 251.224565,297.970988 252.519558,296.719491 C256.786074,292.594598 262.440176,290.754393 267.626058,293.929354 C268.047653,294.188307 268.083114,294.847817 267.626058,295.097592 C266.632486,295.639755 265.636943,296.195684 264.659132,296.775215 L274.141737,294.211252 C281.229394,292.293688 288.401764,289.897553 295.65622,288.560831 C309.017894,281.978179 323.388901,277.213444 337.464398,272.504432 L339.12304,271.944346 C346.33004,269.491452 353.784602,266.745466 361.230671,265.385518 C366.681855,264.390352 373.080644,265.591369 375.272676,271.166399 C378.047848,272.992181 380.658848,275.137886 383.178568,277.248189 C385.000227,278.773062 386.746366,280.394305 388.522056,281.972935 L388.849413,282.259829 C390.301069,283.517212 391.45103,284.359327 391.807477,286.360714 C391.99135,287.394559 391.333347,288.79225 390.056084,288.655234 C386.148121,288.237631 382.970398,283.715459 380.319996,281.015136 C378.272436,278.927778 376.208459,276.769618 374.339519,274.475753 C373.25007,275.067739 371.756757,274.961536 371.063292,273.650381 C367.467257,266.8527 357.616248,271.563023 352.16572,273.175087 L344.357716,275.482216 C340.453966,276.637427 336.55173,277.79835 332.656112,278.979569 C321.949436,282.225332 311.295296,285.857886 300.491429,288.838796 C301.458077,289.89952 301.324769,291.786271 299.488664,292.504128 C291.031808,295.816761 281.75409,297.529784 272.968232,299.802671 C267.421171,301.23904 261.877392,302.683933 256.335584,304.137348 C255.385354,305.674021 254.701739,307.412612 254.414109,309.436379 C253.356543,316.877529 255.396213,325.462998 257.38304,332.659983 L257.682326,333.733781 C259.315566,339.520057 261.718416,346.613294 266.719169,350.267044 C267.939956,351.157974 269.494341,351.77815 271.061204,351.918444 C280.850484,346.888199 290.639107,341.85861 300.433641,336.838199 C302.248076,335.907935 303.924605,337.167299 304.331753,338.664637 C307.785287,338.098874 311.23094,337.207289 314.369262,336.143943 C319.642484,334.356183 323.759931,330.946526 328.703495,328.588414 C338.268896,324.026855 348.037041,329.630021 356.601335,333.889877 L358.57519,334.858364 C362.415743,336.718594 370.405753,340.292264 372.248618,335.2045 C374.030875,330.282426 368.395817,325.022074 364.75644,322.806878 C360.418345,320.165557 355.367084,318.752132 350.464236,317.574716 C347.664766,316.902093 344.831148,316.353375 341.980456,315.952817 C338.746914,315.498502 335.406987,315.566682 332.29362,314.519725 C330.746458,314.000508 330.508736,311.547338 332.29362,311.142191 C337.086201,310.053348 342.806331,311.241042 347.807573,312.454745 L350.421551,313.097778 C355.460334,314.33223 360.547713,315.881359 365.13732,318.343708 C368.47462,320.134745 371.997105,322.855391 374.298148,326.185723 C376.296405,324.332659 378.783444,324.395307 381.374135,325.082578 L382.780296,325.472807 C385.102269,326.115189 386.984369,326.557342 389.243759,326.112299 C389.545836,324.471389 389.851854,322.829823 390.179542,321.188258 C393.399294,305.051878 396.930317,288.977123 400.826459,272.988248 C407.546941,245.409591 415.32339,218.133619 424.090335,191.137159 L424.970329,188.438444 C426.992278,182.263561 428.619556,175.536027 431.879366,169.863316 C434.962526,164.499383 439.902149,161.409647 445.770989,159.773326 C452.431141,157.916731 459.429487,156.945166 466.223604,155.691046 C467.739245,155.41177 469.258826,155.146262 470.77578,154.871575 C469.493811,152.560883 468.536935,149.937931 467.675015,147.925011 L467.52385,147.57631 C465.672181,143.361801 464.008811,139.071355 462.402569,134.758023 L461.201038,131.515359 C458.300885,123.706912 455.307021,116.0267 451.229398,108.723522 C446.937271,101.037534 441.243111,94.7538252 434.144947,89.5531304 C419.67281,78.948512 402.229149,73.5393437 388.192398,62.206379 C387.617137,61.7422302 388.3546,60.9483261 388.938398,61.2420248 C398.416407,65.9962713 408.648296,69.228923 418.506528,73.0994514 L420.45122,73.8654497 C428.243086,76.9490633 436.156288,80.3059605 442.900597,85.2984338 C450.419699,90.8655962 456.34173,97.7793144 460.792776,106.000909 C465.179466,114.105156 467.985503,123.176379 471.080484,131.832622 L471.908258,134.139115 C473.156618,137.597747 474.446021,141.046045 475.923574,144.411839 C477.096422,147.083972 479.285171,150.134373 480.280056,153.186741 C483.002037,152.715381 485.723361,152.24271 488.447968,151.788395 C547.462741,141.952113 607.136831,136.172543 666.943572,134.481809 C669.283359,134.415596 670.493639,136.644559 670.148877,138.682093 C664.409405,172.562984 659.308892,206.559911 653.712579,240.466369 C651.269692,255.264716 648.778209,270.051917 646.228282,284.831907 C644.936572,292.319911 643.443259,299.77907 642.219845,307.278219 C641.232183,313.334442 640.515077,319.437866 638.819503,325.353796 C637.298609,330.658072 634.964732,335.772886 631.131632,339.819764 C626.999737,344.181976 621.232685,346.29359 615.427544,347.291379 C600.69076,349.823219 585.575067,350.857064 570.718766,352.543864 L491.622408,361.52724 C492.778273,372.015573 492.864657,382.34073 492.334319,392.951165 L492.03207,398.743421 C491.78498,403.402363 491.489593,408.068311 490.819276,412.679314 C489.978713,418.463473 487.328311,423.361291 483.424289,427.681545 C479.839417,431.649099 475.484248,435.0345 471.24794,438.278297 C466.850743,441.646653 462.307104,444.897661 457.136982,446.98043 L456.465927,447.246319 C451.930256,449.014186 443.421804,451.751764 437.222197,450.75131 C438.032553,454.804745 439.600729,459.163023 438.210516,463.173845 C437.565646,465.03634 435.126042,465.965293 433.631415,464.380763 C430.670399,461.239892 430.439245,457.091399 429.737899,452.99404 C429.008317,448.730166 428.379208,444.451213 427.820364,440.16177 C426.739452,431.868062 425.898232,423.498307 425.641466,415.134451 C425.377477,406.545078 425.479264,397.943903 425.942887,389.363708 C426.181266,384.957573 426.476776,380.55406 427.036933,376.176115 C427.275968,374.309031 427.520257,372.440635 427.79935,370.57814 C427.901137,369.898962 428.014088,369.223062 428.135576,368.548473 L421.036217,369.348077 C410.150459,370.561286 399.259526,371.656846 388.296811,371.827015 C386.998535,371.846682 385.999709,371.256663 385.346959,370.397201 C384.651524,371.528072 383.440588,372.337054 381.706269,372.330498 C366.396852,372.273463 352.140109,367.275997 338.215651,361.386291 C331.196947,358.416526 324.287253,355.201575 317.258042,352.257377 C310.697051,349.509197 303.682943,347.548365 297.280215,344.452729 L280.455813,353.262377 C280.332355,353.695714 280.174093,354.105449 280.00598,354.448316 C278.910621,356.680557 276.750767,357.891408 274.544945,358.803316 C272.427776,359.680479 270.235088,359.953199 268.098875,359.731614 C255.339221,366.406702 242.576612,373.075521 229.805508,379.728668 L217.031366,386.376242 C191.580683,399.605136 166.230473,413.051027 140.619558,425.969177 L138.734077,426.916714 C129.887968,431.344911 120.389036,435.833605 110.572044,439.182993 C110.397364,441.663698 110.507688,444.076222 110.715859,446.701809 L110.765971,447.273772 C111.058667,450.376511 111.686254,454.264279 109.192995,456.473189 C107.896032,457.621761 105.579229,457.62635 104.697294,455.894314 C103.09694,452.753444 104.533778,447.801868 105.040743,444.389588 C105.220676,443.176115 105.44001,441.928551 105.764415,440.718355 C94.5100597,444.063111 82.9148819,445.685009 71.4622058,443.80678 C60.3116072,441.979686 51.6754752,434.966976 44.7132463,426.389402 C37.3655403,417.337847 32.144197,406.788952 29.3427569,395.4809 C26.1545262,382.613228 25.9463554,369.324676 26.0212181,356.144295 C26.1006776,342.10904 26.6207762,328.004295 28.3307973,314.063444 C26.4572604,313.623551 24.3794928,313.243316 22.4862551,313.374432 C21.5485016,314.872426 19.7294699,315.503091 18.0857745,315.308385 C14.51141,319.243815 23.5776741,323.265782 26.474991,324.272749 C27.4810403,324.622827 27.3733431,326.253903 26.2129716,326.204735 L25.4820605,326.170051 C21.0051664,325.932282 16.3799312,325.169206 13.7476794,321.015841 C11.6383907,317.686819 12.2720966,313.742866 14.7865632,311.028121 C16.4473326,295.351956 20.4176811,280.086839 24.1128766,264.794843 C27.7391195,249.7854 31.7718537,234.872328 36.0462498,220.034647 L37.9624878,213.393592 C44.6924445,190.128092 51.7269254,166.674873 61.0103255,144.333825 C65.6459012,133.178522 70.9861054,122.228414 78.2248009,112.501614 C84.9722921,103.434324 92.9386002,95.6755668 102.095487,89.0489915 C119.166157,76.6941649 139.196822,69.2290868 158.877799,62.1168476 L159.758792,61.7986099 C169.957847,58.1155766 180.131947,54.3886197 190.214767,50.3981207 C199.131963,46.8691481 207.674845,42.394833 216.550012,38.8127586 C216.261725,38.2902635 215.983289,37.7618682 215.715359,37.2275727 L215.551284,37.3653411 C215.523241,37.3876064 215.494492,37.4091676 215.464503,37.4294905 C214.572061,38.0470443 213.258024,37.743512 212.522532,37.0505668 C210.445796,35.0943108 211.148878,32.9227291 212.535086,30.8939347 L212.715598,30.635743 C214.411172,28.2645199 215.92353,25.7575923 217.488422,23.3004886 L218.468371,21.7639053 C221.095102,17.6589302 223.855471,13.5265594 227.357818,10.1338741 C228.979843,8.56179971 230.755533,7.38569404 232.636951,6.50918719 C232.476061,6.16959815 233.886632,5.47534179 234.286556,5.82476449 C240.247333,3.6469367 247.105148,4.1032185 253.603753,4.70372731 M487.795218,361.961232 L479.507789,362.901986 C470.390303,363.937667 461.269271,364.939127 452.147104,365.930863 L432.333139,368.080391 C432.282574,369.207984 432.145326,370.310665 432.120371,371.16226 C431.991003,375.552661 431.89447,379.945029 431.80319,384.336741 C431.619973,393.139833 431.820921,401.951447 432.401435,410.737494 C432.964136,419.250985 433.705183,427.765628 434.856705,436.221464 L435.092551,437.911829 L435.229142,438.800792 C436.168866,438.891262 437.092172,439.337054 437.859843,440.252896 C439.535716,442.25044 445.60419,440.30862 447.974185,439.466858 C451.871641,438.082279 455.541882,435.743179 458.928433,433.397524 C462.235679,431.107168 465.21368,428.436441 468.075409,425.623097 L470.416867,423.311281 C472.746017,421.000683 475.077689,418.539158 476.504745,415.63269 C478.44001,411.691359 478.690209,406.853199 479.25759,402.560479 C479.956308,397.280459 480.788334,392.001095 481.667642,386.747299 M247.213502,306.537416 L246.353894,306.762935 C215.127621,315.046154 183.947973,323.573903 152.625824,331.49131 C137.12531,335.410352 121.551246,339.044217 106.031688,342.887866 L103.519032,343.515223 C91.2757581,346.60436 78.8855069,350.322256 69.509866,359.187485 C69.1637903,359.513962 68.6614223,359.012446 68.9871407,358.665645 C79.0916319,347.927289 93.4626389,343.381516 107.261012,339.440841 C109.811597,338.712494 112.365465,338.001193 114.916706,337.27678 C96.1511283,330.598414 77.0893836,324.788033 57.5876565,320.644128 C52.565947,319.576849 47.4857921,318.793434 42.4680227,317.72222 C38.9685866,316.974666 35.551066,315.894163 32.0885983,314.997817 L29.3650843,314.313874 L29.3289141,322.906935 C29.2835877,335.07777 29.3052317,347.238683 29.9272111,359.407759 L30.0449508,361.662004 C30.7706341,375.204469 31.9033645,389.028121 36.7173871,401.797387 C40.6292903,412.173864 46.8645632,421.949177 55.0186847,429.507328 C59.1446688,433.33131 63.5806107,436.308287 69.0639734,437.778091 C74.1552921,439.142348 79.4895861,439.302309 84.7234065,438.938463 C109.828014,437.190038 132.175179,423.575665 153.982546,412.303669 C189.651984,393.866868 225.325362,375.439246 261.030919,357.073248 C260.065584,356.414393 259.156725,355.655234 258.329952,354.802328 C253.542024,349.865831 251.016394,343.10814 249.357595,336.563512 C247.591755,329.597348 246.535797,322.130978 246.412996,314.939295 M292.645361,364.190261 C292.960573,364.021122 293.325692,364.232873 293.340139,364.588196 C293.450463,367.310605 291.943402,369.995734 290.817372,372.44827 L290.698275,372.710143 C289.330389,375.748088 287.832479,378.745388 286.283347,381.695486 C283.187053,387.589781 279.969271,393.421141 276.610958,399.169899 C269.857557,410.734938 262.352902,421.812883 253.482331,431.88255 C251.47877,434.157403 248.183499,431.24074 249.469298,428.791503 C255.668453,416.984556 262.895328,405.836464 270.334314,394.785398 C274.058404,389.252325 277.779867,383.714008 281.540731,378.205848 C283.109673,375.907503 284.698681,373.617353 286.330556,371.361955 L287.315007,370.013098 M662.988984,141.244089 C631.653701,142.188776 600.355192,144.228933 569.168977,147.426183 C540.1656,150.399226 511.268607,154.356946 482.534473,159.290821 C476.532873,160.32117 470.538569,161.393859 464.551941,162.508886 L460.960889,163.182984 C454.973188,164.315821 447.658317,164.783248 442.327306,167.976565 C436.706695,171.342954 435.187771,178.37861 433.317517,184.180469 C431.118919,191.003718 428.976139,197.846633 426.891148,204.705939 C418.611598,231.940586 411.048498,259.411242 404.301664,287.063492 C400.952544,300.789314 397.981021,314.591839 394.849922,328.367485 C392.068183,340.607113 388.998813,352.708414 385.792195,364.825449 C386.187523,364.518639 386.67216,364.285254 387.257271,364.160694 C403.18057,360.778837 419.434817,359.308543 435.596119,357.440244 L437.159811,357.258121 C453.878486,355.295322 470.59716,353.346946 487.325685,351.469373 L598.082387,339.035038 C604.614484,338.302103 611.612174,338.202455 617.968935,336.452719 C628.776583,333.476307 631.309828,321.413859 633.123142,311.807519 L633.177878,311.517181 C638.644824,282.492808 642.996709,253.216037 648.095252,224.118238 M388.369704,331.085508 C384.069697,330.802299 378.18444,326.870802 374.922003,327.1527 C376.634651,330.021506 377.407576,333.293492 376.42057,336.787719 C373.673635,346.511242 361.251028,341.480342 355.267267,338.509921 C350.361135,336.07314 345.623773,333.091575 340.192289,331.950215 C334.039102,330.658727 329.870433,333.101408 324.672074,335.917113 C320.402274,338.229334 315.752252,339.889911 310.970234,340.749373 C308.42753,341.206966 306.012223,341.255479 303.601514,341.077162 C303.456385,341.195166 303.29287,341.304647 303.10637,341.402328 L301.831077,342.070361 C307.597473,342.333903 313.47091,344.110518 318.837382,345.737005 C324.398234,347.421577 329.857378,349.452712 335.287438,351.529665 L340.629396,353.579396 C353.806162,358.616741 367.445914,363.400183 381.706269,363.358267 C382.731362,363.355645 383.571269,363.638855 384.232556,364.101037 M364.311401,300.618209 C368.55953,300.099647 372.480626,300.655577 375.875058,303.416213 C379.968864,306.745234 382.719082,312.266506 388.604339,312.62904 C390.320271,312.734588 390.718882,315.143179 389.013457,315.646663 C384.632677,316.941428 381.085894,314.575449 378.101237,311.503414 L376.094515,309.410344 C373.145013,306.361426 370.424734,304.004351 365.419894,304.186516 C360.059989,304.381878 354.69089,305.618297 349.36579,306.246995 C343.333434,306.958952 337.302392,307.566017 331.250993,308.089823 C330.969929,308.11408 330.921991,307.67222 331.185324,307.607318 L337.963156,305.923364 M360.210765,283.28068 L360.911392,283.210678 C367.080176,282.612701 372.721751,282.589499 378.230999,285.902334 L379.287666,286.540246 C384.254815,289.554168 389.66126,293.104943 392.767492,297.984624 C393.27577,298.783772 392.435864,299.723215 391.58545,299.519986 C385.61548,298.089516 381.251117,293.716815 376.230721,290.444173 C370.59632,286.771629 364.776075,287.377383 358.351675,287.947735 C352.131506,288.500387 345.914621,289.259545 339.755524,290.294702 C333.968114,291.266267 328.162316,292.800318 322.316461,293.289379 L322.317774,293.277579 C321.64992,293.276267 321.26904,292.275201 321.950027,291.935612 C327.882566,288.978303 334.753515,287.578645 341.206809,286.2275 M547.607016,222.413737 C547.010741,219.566565 550.51878,218.246232 552.144745,220.504696 L552.490541,220.981004 C556.003307,225.785314 561.083526,231.813849 560.824875,237.92404 C563.912632,237.991565 567.113996,239.864549 568.317053,242.646164 C568.873269,243.933062 569.061739,245.457935 568.938938,247.036565 C571.745632,247.254217 574.806465,249.093766 576.522396,250.884804 C579.366521,253.853913 579.591109,258.049608 577.550773,261.518923 C573.102122,269.081447 563.383667,271.832547 555.179436,272.44669 L554.887083,272.467719 C546.413153,273.052494 534.202657,272.8945 528.392262,265.636604 C522.787412,258.635694 528.98197,252.967573 535.334134,249.889637 C533.680588,248.382465 532.824264,246.221027 533.629366,243.941584 C535.04322,239.935352 540.034722,238.387534 542.855206,235.602641 C546.293507,232.206868 548.565632,227.548878 547.6596,222.679541 M552.264262,228.570264 C551.329792,232.624354 549.034004,236.332299 545.836579,239.270596 C544.613822,240.394256 543.276144,241.394667 541.855067,242.254128 L541.684232,242.353113 C540.423058,243.059907 537.323065,244.384099 537.561627,245.969941 C537.807229,247.599706 542.857833,250.150557 544.234255,250.151868 C544.547496,250.151868 544.724803,250.640273 544.404995,250.781878 C541.910229,251.881937 539.731331,252.353297 537.291727,251.190958 C535.661822,252.852191 534.078542,254.571115 532.510366,256.27496 C529.737164,259.28996 530.686081,262.473444 533.962965,264.71814 C539.228306,268.325127 547.232046,268.237279 553.375382,267.975048 C559.558776,267.711506 566.168363,266.334794 570.998319,262.223013 L571.208687,262.040078 C573.833692,259.709439 576.23132,255.760136 572.211225,253.515635 C570.637139,252.636506 568.936312,252.688297 567.441685,252.26086 C566.042935,254.997896 563.77407,257.190146 561.005465,257.612993 C558.767957,257.954658 557.227026,255.147074 559.262403,253.804217 L559.719662,253.52062 C562.275475,251.892142 564.456371,249.383874 564.398583,246.117446 C564.359132,243.849943 561.187204,240.986001 559.120774,243.116581 L559.026201,243.218483 C557.297067,245.164256 554.251408,242.712297 555.388704,240.556283 L555.443299,240.458502 M148.978171,115.824473 C148.970489,115.337379 149.656731,115.155128 149.896423,115.576665 C153.910113,122.626087 156.008238,131.267252 158.146421,139.033876 C160.385734,147.16959 162.193602,155.387907 163.817597,163.666537 C167.106958,180.430305 168.859664,197.097702 168.978676,214.183357 C168.994942,216.622761 165.014086,217.271782 164.624669,214.772066 C162.03928,198.152526 159.562245,181.515941 156.957155,164.90099 C155.646401,156.544346 154.12091,148.219825 152.661088,139.888093 M188.713377,128.103108 C188.417866,127.130887 189.835004,126.80572 190.197496,127.694683 C198.252458,147.43346 200.980349,169.803069 195.808914,190.627482 C195.017602,193.812932 190.343938,192.432942 190.94087,189.287482 M292.613183,110.563924 C292.572469,109.836233 293.518759,109.721507 293.875342,110.222368 C297.692025,115.590891 299.275305,122.780607 305.971574,125.55501 C309.314784,126.940245 313.076962,126.698992 316.030754,129.038748 C318.005421,130.603611 319.519749,133.073826 318.037599,135.443738 C317.559529,136.209452 316.221194,136.592965 315.572384,135.761037 C314.625437,134.548875 314.124382,133.097427 312.837926,132.188797 C311.023492,130.907143 308.576664,130.827818 306.49627,130.225343 C303.805154,129.446517 301.433189,128.083572 299.490699,126.058493 M356.376614,21.0226197 C356.769971,20.8226686 357.147568,20.9505062 357.399081,21.2900952 C357.75829,21.7739113 357.714292,22.2446158 357.274309,22.5763379 C357.862047,23.7753888 358.556169,26.7792439 358.655329,27.216514 C359.057223,28.989195 359.484729,30.7513868 359.931934,32.5122674 C360.834227,36.0635297 361.624882,39.6423261 362.527831,43.1948995 C363.485285,46.9605355 364.625956,50.6861813 365.895338,54.3580698 C365.977205,54.5958258 366.067245,54.8385351 366.161759,55.0848379 L366.306426,55.4568173 L366.341887,55.4004377 C366.599966,54.9933242 367.137139,55.2778447 367.07344,55.7079034 C367.014338,56.0999387 366.934878,56.4900071 366.867896,56.8820424 L367.000909,57.2332524 C367.831244,59.4642892 368.399888,61.8139832 366.876433,63.782649 C366.306426,64.5188623 365.679287,64.9548212 364.897825,65.0846255 C363.644861,69.2082068 362.072744,73.2550854 360.389648,77.1413477 L359.896347,78.2763074 C357.420549,83.9471671 354.780077,89.543518 350.838089,94.3712302 C346.534142,99.6420717 340.614081,103.241191 336.865037,109.016827 C335.120868,111.703383 333.907304,114.528265 332.922269,117.562277 L332.551719,118.713915 C331.852548,120.859887 331.045886,122.939898 329.02941,124.198686 C328.385854,124.5999 327.421832,124.472062 326.903047,123.924655 C322.767869,119.557855 327.096771,111.403784 329.590223,107.175966 C333.056234,101.296749 338.07269,97.5357019 343.095713,93.1000659 C348.510123,88.3189406 351.963656,81.9231285 355.304239,75.6223751 C357.350486,71.7623359 359.325809,67.8190385 361.405547,63.9419543 C359.232733,62.0247956 358.537206,58.2166038 357.801068,55.5696096 L357.733993,55.3322576 C356.517146,51.0932948 355.550498,46.744195 354.939776,42.3760835 C354.352,38.1760697 354.106848,34.0364506 354.262353,29.8129348 L354.307228,28.7370526 M364.455413,41.0123516 C363.975373,40.3554631 364.769968,39.6113829 365.428628,39.7483985 C369.43326,40.5750589 373.348514,42.9949732 376.942689,44.9517453 L377.32654,45.1595336 C380.195619,46.7040737 383.082429,48.5960698 384.588876,51.5966471 C386.227338,54.8578461 386.092358,58.6140524 385.868907,62.1581074 L385.847751,62.4897195 C385.573911,66.7398271 385.529913,71.1557958 384.628934,75.3292009 C384.167938,77.4650717 382.230045,78.0668917 380.573216,77.5620972 C378.601832,83.7763144 373.063964,88.3548662 369.018753,93.2585844 C363.861109,99.5101696 364.831697,107.950727 365.370839,115.480033 C365.58886,118.528467 361.790565,119.39514 359.834285,117.768653 L355.325937,114.030405 C354.575145,113.406442 353.825351,112.781239 353.0776,112.153633 C352.437108,111.615623 351.802453,111.073533 351.173052,110.524645 L350.232818,109.695874 C349.81582,109.323506 347.976431,107.272205 347.438602,107.18698 C346.135903,106.980254 343.040957,110.407622 341.981742,111.48259 L341.847542,111.616716 C339.85383,113.568369 338.052529,115.668183 336.374686,117.895179 C336.066042,118.30426 335.462543,117.964671 335.683191,117.491999 C337.186601,114.277007 338.934731,111.203182 341.010368,108.326162 L341.429887,107.753399 C342.810906,105.895492 344.664742,102.614984 347.102376,102.066265 C350.078865,101.396743 353.050947,104.37656 355.21656,106.030407 L355.353688,106.134123 C356.384035,106.905737 357.402561,107.691119 358.419117,108.481745 C358.312734,102.875903 359.021959,97.2117156 361.921246,92.3807664 C363.965522,88.9737312 367.028325,86.4504142 369.649176,83.522606 C372.56685,80.2624201 374.090371,76.2555316 376.731579,72.8602968 C377.071744,72.4236823 377.540621,72.18833 378.048242,72.1135942 C378.149731,69.3840088 378.552428,66.6273333 378.863604,63.9273005 L378.953818,63.1190737 C379.268373,60.1853653 380.011746,56.6019798 378.572938,53.8544553 C377.21383,51.2593526 374.095415,49.4275501 371.786187,47.6667889 L369.900663,46.2066934 M234.486847,9.9916138 C233.281164,10.6878369 232.154283,11.5538545 231.131817,12.6362126 C227.913378,16.044559 225.612336,20.2861441 223.373023,24.3664572 C222.16734,26.5639524 221.004998,28.7857038 219.789465,30.9779543 C219.260829,31.9318193 218.71709,32.875195 218.16744,33.8172596 C217.913301,34.2512518 217.158107,35.1139915 216.783794,35.6456647 C217.19971,36.2274352 217.629733,36.8002752 218.068383,37.3669197 C218.235745,37.5831158 229.780847,50.1383093 233.805202,55.0520639 C239.967583,62.5787469 245.475899,70.5289328 250.185024,79.0383261 C254.796303,87.3713692 258.306968,96.1941285 262.578737,104.688444 C264.716921,108.941173 267.104646,113.163747 270.148405,116.844158 C270.265952,116.987729 270.390067,117.123434 270.510241,117.265038 C271.671885,114.132137 274.648498,110.777748 276.110447,108.851647 L276.247086,108.669764 C279.562715,104.207905 283.064186,99.8804396 286.641834,95.6263985 C289.909524,91.7418845 293.260233,87.9412844 296.692116,84.2034182 L297.982873,82.8046177 C300.373882,80.2262322 303.411074,76.3681598 306.911232,74.5259876 C306.536262,73.8586099 306.10219,73.1984435 305.603105,72.5467997 C302.323595,68.2686662 297.687755,65.1638794 293.113394,62.3623908 L290.146891,60.5609302 C278.96483,53.7581458 267.956966,46.6400797 258.249179,37.8012028 C253.113206,33.1243144 248.048155,28.2251852 243.731074,22.7701265 L242.204308,20.8413415 M253.144727,6.62391322 C247.90828,7.06249443 242.253521,6.95825764 237.414371,8.66144746 C241.716348,12.7214377 245.805558,17.1052831 250.006405,21.2334533 C250.380061,18.4413496 251.144449,15.6833359 251.791945,12.9607234" id="ðŸ–-Ink" fill="#000000"></path>
                </g>
                <g id="HEAD" transform="translate(244.2887, 118.0039)" fill-rule="evenodd">
                    <path d="M283.026501,177.040616 C280.542896,136.262397 267.316226,90.0304305 228.388504,70.0090998 C142.570454,35.5532681 29.737466,122.322857 23.7637082,210.964775 C21.6811498,241.307515 38.5211705,274.463337 69.2949353,282.899305 C76.1369719,291.967906 86.4842334,297.506223 96.6971575,302.312916 C218.339406,365.449599 296.915029,314.126419 283.026501,177.040616 L283.026501,177.040616 Z" id="âœ‹-Skin" fill="#D08B5B"></path>
                    <path d="M310.738355,151.67443 C306.439556,139.729811 301.898294,127.876974 297.121123,116.115917 C292.468459,104.669537 288.265941,92.9757511 282.488168,82.0717877 C247.979822,16.9467387 185.227842,16.9467387 152.790258,25.4561321 C135.968586,18.2054472 104.46109,20.2506806 86.9452403,26.7935098 C58.5888945,37.3856722 24.0222259,79.0528542 12.2038053,97.7735196 C-13.8897733,139.107013 -30.1740955,194.121093 -12.8412857,241.883833 C-10.5758973,248.12624 -7.68665882,253.907776 -4.4337262,259.479527 C-6.48286405,262.257864 -8.84130573,264.889351 -11.4540056,267.474948 C-19.218056,275.159625 -26.9821063,282.59125 -33.6891501,291.258637 C-40.3542543,299.872267 -45.8797837,309.031993 -49.9931315,319.131161 C-57.7493181,338.176993 -58.1228418,359.742864 -47.8686336,377.916122 C-38.9473151,393.728647 -23.1433312,405.503471 -5.33804671,406.626475 C-4.42389662,406.753657 -3.50843593,406.870349 -2.58904341,406.962786 C-0.229946426,410.850359 2.64684129,414.429811 5.92991793,417.550359 C15.9888454,427.121788 39.966445,432.032062 53.6426545,432.346739 C54.3438305,432.910535 55.0515596,433.474332 55.7592887,434.031572 C64.12753,440.620124 72.9086132,447.267678 82.5153804,451.955056 C89.0225562,455.134606 97.5546237,457.789694 104.343581,455.495173 C107.423513,457.553686 112.475912,457.121005 115.529632,455.436171 C120.549266,452.669635 124.631815,447.687248 127.11542,442.586856 C133.13767,430.203001 131.689446,416.652218 130.142927,403.422668 C128.439135,388.80985 126.800873,374.190477 125.136399,359.577659 C123.832343,348.150946 122.469309,336.534116 118.996194,325.526974 C117.200659,319.823451 114.848115,314.342825 111.807501,309.189987 C111.886138,308.757306 111.873032,308.324625 111.748524,307.918167 C110.752461,304.679615 108.694804,302.98167 106.25707,300.778931 C105.942524,300.497032 105.627978,300.208578 105.319985,299.913568 C104.101118,298.523745 102.797061,297.232257 101.401262,296.137443 C100.863913,295.593314 100.333116,295.042629 99.8023189,294.491944 C95.3921181,289.870124 91.2243801,285.012296 87.5219084,279.807013 C83.9308386,274.759068 80.6870802,269.488226 77.600595,264.119048 C74.4616854,258.658089 72.3843694,252.633334 69.2520129,247.211709 C68.983338,246.74625 68.301821,246.654469 67.9217443,247.041259 C66.9518933,248.044293 66.3293538,249.158774 66.4473087,250.332257 L65.9623832,250.404371 C65.7788979,248.634312 64.1471891,247.192042 61.9322592,247.578833 C58.6164173,248.155741 55.8903497,248.372081 53.020115,247.270711 C53.5246996,243.920711 53.989966,240.564156 54.4486793,237.201044 C55.2874693,231.012394 56.0672819,224.804077 56.7356928,218.59576 C58.3542954,218.982551 59.959792,219.539792 61.5325233,220.247815 C63.7736654,221.250848 65.8902997,222.601338 67.6989407,224.259948 C69.4813695,225.898891 70.7133424,228.108187 72.8889541,229.248891 C75.3922181,230.55349 78.4131729,228.396641 77.6792316,225.564547 C76.1916899,219.841357 67.7710242,216.563471 62.5613517,215.481768 C60.7723698,215.108089 58.9440697,214.95075 57.1157695,214.990085 C57.5286115,211.004175 57.8955821,207.018265 58.1970223,203.025799 C58.3411893,201.137737 58.4722503,199.249674 58.5967582,197.355056 C62.6465413,196.129126 66.9846586,195.762003 71.1982679,196.338911 C72.5875139,197.446837 73.9767599,198.541651 75.3201346,199.649576 C79.5861683,203.176582 83.8325429,206.723255 88.0264931,210.335486 C88.4065698,210.656719 88.7800935,210.977952 89.1601702,211.305741 C91.6503282,213.449478 94.7564725,211.325408 94.3370775,208.290085 C90.9163869,183.417482 106.145669,163.632159 123.97651,148.304762 C143.714288,131.331866 179.598774,129.355494 203.071789,99.9559364 C213.882417,102.157097 238.01919,108.694782 247.979822,124.572864 C261.924706,146.823158 260.102959,166.759263 261.164553,191.998989 C262.226146,217.258383 264.926002,243.606034 259.192086,268.511416 C253.903776,291.476289 239.585368,311.097717 217.370538,320.118461 C216.820082,320.341357 216.263073,320.557698 215.706064,320.767482 C204.218573,325.100848 191.682593,326.326778 179.598774,324.045369 C166.224005,321.514841 155.057613,315.391749 143.930539,307.859165 C143.28834,307.43304 142.351254,308.311514 142.83618,308.953979 C157.501899,328.398402 186.309095,334.895173 209.15957,329.762003 C210.227717,329.519439 211.289311,329.257208 212.344351,328.968754 C207.232974,343.673353 208.261803,359.813666 214.919699,374.131475 C218.923611,382.74576 225.031051,390.199674 232.468759,396.080203 C240.666621,402.557306 250.83695,407.788813 256.524995,416.88167 C261.734668,425.214058 260.188149,434.575702 251.269452,439.387639 C249.021756,440.607013 248.156754,444.547032 250.38479,446.277756 C251.236686,446.933334 252.088582,447.602023 252.960138,448.2576 C257.95356,452.027169 271.669087,459.107404 273.89057,459.369635 C293.615242,461.710046 306.87861,447.221788 315.377912,430.130887 C325.358203,410.070222 322.763196,385.623745 311.767183,366.520222 C302.946782,351.192825 285.574654,336.088324 292.481565,316.689792 C294.945511,309.76034 299.984804,303.853588 304.879931,298.517189 C310.463127,292.439987 316.465718,286.749576 321.819558,280.456034 C327.140632,274.208383 331.858826,267.410046 334.493151,259.569341 C338.339789,248.10985 336.4263,235.719439 333.536406,224.279615 C327.343776,199.72169 319.303187,175.491553 310.738355,151.67443 Z" id="ðŸ–-Ink" fill="#000000"></path>
                </g>
                <g id="FACE" transform="translate(348.7025, 239.9413)" fill="#000000" fill-rule="evenodd">
                    <path d="M117.463422,151.384119 C113.006518,153.133247 107.740809,153.546399 103.140475,152.056109 C98.7417044,150.630759 94.7474438,147.458617 92.3305847,143.469211 C90.1779383,139.91593 89.27895,135.699213 90.5511701,131.495537 C90.6120323,131.294327 90.8094746,131.165652 90.9999436,131.11546 C92.0407685,132.061438 92.6838171,133.000978 93.3263032,133.935928 C94.4094777,135.512172 95.4950574,137.072236 96.9852516,138.41986 C99.1534155,140.380381 102.074605,141.972686 104.973775,142.497813 C107.812381,143.013115 110.717607,142.557723 113.259317,141.201323 C114.805047,140.377057 116.054833,139.274805 117.292402,138.167658 C118.640012,136.962066 119.96627,135.738123 121.822262,135.057355 C123.309579,134.511716 124.871884,134.97214 126.072078,135.884873 C127.362044,136.865876 128.289655,138.401467 128.238229,140.006861 C128.158585,142.49415 127.067958,144.568966 125.485492,146.280765 C123.346098,148.595007 120.321134,150.262475 117.463422,151.384119 Z M112.172069,89.3992109 C117.130985,92.4083406 124.68685,99.4250441 119.352198,106.885043 C113.072802,113.462771 104.03189,105.920957 99.576685,102.510088 C95.4456103,99.8666456 90.8041164,106.665382 94.6369298,109.752046 C126.830333,133.546379 139.895098,90.1860564 114.68022,85.8612121 C111.903971,85.3846328 110.872865,88.4683037 112.172069,89.3992109 Z M60.0135986,47.7052456 C66.7722535,47.3827016 72.7284331,50.4127798 79.16925,51.7894922 C85.1214894,53.0626233 90.9857324,52.2982202 96.774456,50.6789442 C106.169065,48.0507348 110.052731,62.4078777 100.786176,65.2058816 C94.0380282,67.2434159 86.9326408,67.3850205 80.0078433,66.3347857 C73.8566268,65.4012436 68.7002958,62.4118112 62.8353961,60.6712534 C57.8021869,59.1782752 51.8812335,59.7987563 46.5658849,60.5016544 L44.5025775,60.7787681 C41.4358345,61.1911262 38.3526743,61.6047955 35.3161391,62.2033376 C32.6814982,62.7232104 30.0514542,63.674453 27.3623081,63.78459 C27.0569472,63.7977016 26.7982113,63.4017329 26.9906215,63.1375352 C30.1144235,58.8562367 36.1350249,55.4781055 40.9241063,53.2249882 L41.2486778,53.0731125 C47.1602025,50.3216546 53.4315933,48.0186115 60.0135986,47.7052456 Z M57.5374345,79.2749514 L57.5365876,79.1272589 C57.5457813,74.9467824 59.9847351,65.401844 66.0132228,65.401844 C69.7793258,65.401844 72.0658321,71.8978314 72.4616623,78.5942616 L72.4754106,78.8672924 C72.6502076,83.0305527 71.5057831,92.1307146 66.0132228,92.1307146 C60.4625363,92.1307146 57.5945057,83.5117279 57.5374345,79.2749514 L57.5374345,79.2749514 Z M146.292581,79.2749514 L146.293428,79.1272589 C146.284235,74.9467824 143.845281,65.401844 137.816793,65.401844 C134.144843,65.401844 131.879434,71.577092 131.401579,78.0925036 L131.368354,78.5942616 C131.130569,82.6169612 132.200804,92.1307146 137.816793,92.1307146 C143.36748,92.1307146 146.23551,83.5117279 146.292581,79.2749514 L146.292581,79.2749514 Z M146.200166,42.6135551 L146.631357,42.6230137 C153.676328,42.8668885 160.922904,47.0330822 162.803665,54.0313699 C162.900855,54.3945597 162.452335,54.63909 162.186376,54.3899706 C156.393633,48.9757431 148.603072,54.1491865 142.802496,56.8609099 L140.671928,57.8434927 C133.194046,61.3165936 124.689053,65.3998329 116.386179,62.8115166 C112.442754,61.5823092 109.938138,57.5373973 111.063048,53.4518395 C112.063785,49.8166732 116.459066,46.7616792 120.265991,48.073758 L120.438614,48.1364188 C123.531624,49.3175506 127.334681,48.1208488 130.529083,46.9409918 L133.153159,45.9572708 C137.372737,44.3588486 141.611826,42.5705491 146.200166,42.6135551 L146.200166,42.6135551 Z" id="ðŸ–-Ink"></path>
                </g>
                <g id="FACIAL-HAIR" transform="translate(325.0616, 339.5888)"></g>
                <g id="MASK" transform="translate(259.3926, 302.2211)"></g>
                <g id="ACCESORIES" transform="translate(275.1532, 275.998)" fill="#000000" fill-rule="evenodd">
                    <path d="M231.802032,69.750409 C221.946426,74.4889217 208.196648,67.4998121 201.569988,60.1789804 C199.157965,57.5134031 197.296905,49.8870724 198.224808,45.0502231 C200.737962,31.9511331 210.181166,24.0894501 220.150379,21.4048611 C233.969766,17.6824932 247.87715,27.112317 246.255782,38.2400861 C244.71847,48.7863581 242.38919,64.0842544 231.802032,69.750409 M164.720477,44.5880411 C163.930479,58.8632368 152.446939,71.3578845 138.722115,75.0599295 C116.608731,81.2197339 105.680094,65.7015636 100.729963,48.9836869 C100.238102,47.322454 99.0816711,42.2522192 102.184532,37.9031194 C114.387805,20.7958297 144.078736,23.7118376 158.908113,28.4083933 C163.248835,32.5522975 165.023212,38.5331292 164.720477,44.5880411 M242.510021,19.9665245 C242.503455,19.975047 242.495574,19.9822583 242.489007,19.9907808 C242.438442,19.9599687 242.388534,19.928501 242.336655,19.8983444 C242.393787,19.9219452 242.454203,19.9422681 242.510021,19.9665245 M261.01161,21.6166125 C259.727124,7.0824638 214.045787,12.6476595 208.704926,13.8388434 C194.129032,18.1184521 181.539625,29.7615049 165.243203,24.6434129 C148.357729,5.85260078 91.4955866,11.2414462 79.5753472,20.8135303 C77.3189599,19.9298121 74.5753085,20.4037945 71.6681412,21.2376888 C56.7389475,20.6994599 -11.414982,25.8372192 2.52523627,44.8587945 C4.6410919,46.3240098 6.75497746,44.833227 6.81342289,41.8149491 C79.4847239,15.6266027 72.4404088,40.1563386 81.0588102,37.2914658 C82.3748173,37.6697339 83.7479563,37.9090196 84.9490426,38.1607613 C91.6197011,40.3031879 93.8846254,39.6410548 94.7632768,47.1166027 C100.800229,104.84084 177.800432,84.9178454 171.485043,37.5694305 C177.738046,37.225908 183.207618,34.5268963 189.819831,37.162317 C194.410752,81.7658297 230.365194,83.566045 241.185477,68.1042544 C249.344852,57.372454 246.10934,41.1770724 257.324951,32.7345479 C261.752356,36.4333151 262.03736,23.9498121 261.01161,21.6166125" id="ðŸ–-Ink"></path>
                </g>
            </g>
        </g>
    </g>
</svg>