<?xml version="1.0" encoding="UTF-8"?>
<svg width="740px" height="740px" viewBox="0 0 740 740" version="1.1" xmlns="http://www.w3.org/2000/svg" xmlns:xlink="http://www.w3.org/1999/xlink">
    <title>a person/bust copy</title>
    <g id="a-person/bust-copy" stroke="none" fill="none">
        <circle id="Oval" fill="#4A60B2" fill-rule="evenodd" cx="400" cy="391" r="300"></circle>
        <g id="HEAD" transform="translate(236.9965, 152.0646)" fill-rule="evenodd">
            <path d="M280.370757,175.631338 C277.910456,135.177721 264.807897,89.3137704 226.245449,69.4518134 C141.232661,35.270257 29.4584281,121.349143 23.5407243,209.285453 C21.4777074,239.386659 38.1597118,272.278554 68.6447148,280.647371 C75.4225499,289.643783 85.6727192,295.138014 95.7898115,299.906445 C216.290645,362.540547 294.128963,311.62591 280.370757,175.631338 L280.370757,175.631338 Z" id="âœ‹-Skin" fill="#D08B5B"></path>
            <path d="M307.822579,150.467071 C303.564118,138.617534 299.065468,126.859047 294.333123,115.191611 C289.724117,103.836347 285.561033,92.2356456 279.837475,81.4184799 C245.652933,16.8118393 183.489779,16.8118393 151.35657,25.2534962 C134.692742,18.0605282 103.480892,20.0894811 86.1294002,26.5802281 C58.0391328,37.0880748 23.7968163,78.4235778 12.0892924,96.9952229 C-13.7594403,137.999693 -29.8909606,192.57585 -12.7207911,239.958389 C-10.4766597,246.151105 -7.61453199,251.88662 -4.39212287,257.414019 C-6.42203289,260.170239 -8.75834442,262.780779 -11.3465284,265.345794 C-19.0377257,272.9693 -26.728923,280.341767 -33.373032,288.94016 C-39.9755951,297.485224 -45.4492764,306.572037 -49.524027,316.590814 C-57.2074344,335.485037 -57.5774532,356.879239 -47.4194641,374.907835 C-38.5818577,390.594488 -22.9261686,402.275582 -5.2879578,403.389647 C-4.38238553,403.515817 -3.47551495,403.63158 -2.56474944,403.723281 C-0.227788752,407.579908 2.62200498,411.130867 5.87427527,414.226575 C15.838816,423.721813 39.5914248,428.593 53.1393052,428.905173 C53.8339018,429.464481 54.53499,430.02379 55.2360782,430.576595 C63.5257971,437.1127 72.2244841,443.707338 81.7411074,448.357404 C88.187224,451.511644 96.6392318,454.145597 103.364485,451.869341 C106.415517,453.911468 111.420508,453.482231 114.445574,451.810809 C119.418107,449.066295 123.462347,444.123568 125.922648,439.063777 C131.888389,426.778499 130.453755,413.335584 128.921747,400.211344 C127.233942,385.714847 125.611053,371.211846 123.962197,356.715349 C122.670377,345.379595 121.320133,333.855238 117.879608,322.935714 C116.100921,317.277593 113.770452,311.840593 110.758369,306.728773 C110.836268,306.299537 110.823285,305.8703 110.699945,305.467077 C109.713229,302.254305 107.674879,300.569876 105.26002,298.38467 C104.948425,298.105016 104.636831,297.818858 104.331727,297.526197 C103.124298,296.147436 101.832478,294.866229 100.449776,293.78013 C99.9174683,293.240332 99.3916521,292.694031 98.865836,292.14773 C94.4970178,287.5627 90.3683873,282.743542 86.7006573,277.579693 C83.1432838,272.571931 79.9299629,267.343046 76.8724393,262.016608 C73.7629833,256.599119 71.7051595,250.622322 68.6021951,245.243855 C68.3360412,244.7821 67.6609192,244.69105 67.2844089,245.074762 C66.3236584,246.069811 65.7069604,247.175421 65.8238085,248.339563 L65.3434332,248.411102 C65.1616696,246.655134 63.5452718,245.224344 61.3511254,245.608056 C58.0663973,246.180372 55.3659094,246.39499 52.5226072,245.302387 C53.0224572,241.979054 53.4833577,238.649217 53.9377668,235.312877 C54.7686861,229.17349 55.5411814,223.014592 56.2033203,216.855695 C57.806735,217.239406 59.3971666,217.792211 60.9551404,218.494599 C63.175253,219.489648 65.2720261,220.829387 67.063696,222.474794 C68.8293996,224.100691 70.0498124,226.2924 72.2050095,227.424025 C74.6847844,228.718239 77.6773924,226.578558 76.950338,223.769008 C75.4767544,218.091376 67.1351031,214.839582 61.9743149,213.76649 C60.2021197,213.395786 58.3909752,213.2397 56.5798306,213.278721 C56.9887988,209.32454 57.352326,205.370359 57.6509376,201.409674 C57.7937519,199.53664 57.923583,197.663607 58.0469226,195.78407 C62.0587051,194.567899 66.3561162,194.203698 70.5301876,194.776014 C71.9063978,195.87512 73.282608,196.96122 74.6133773,198.060326 C78.8393812,201.559256 83.0459104,205.077697 87.2005072,208.661174 C87.5770175,208.97985 87.9470363,209.298526 88.3235467,209.623705 C90.7903385,211.750378 93.8673367,209.643216 93.4518771,206.632055 C90.0632841,181.957443 105.149664,162.329615 122.813191,147.124227 C142.365763,130.286438 177.913531,128.325799 201.16629,99.1602673 C211.875477,101.343906 235.785766,107.82955 245.652933,123.581239 C259.466968,145.654416 257.662315,165.431826 258.713947,190.470639 C259.765579,215.528963 262.440101,241.666882 256.759988,266.374012 C251.521301,289.156079 237.337248,308.621317 215.330869,317.570254 C214.785578,317.791376 214.233795,318.005995 213.682013,318.214109 C202.302313,322.512981 189.883963,323.729152 177.913531,321.465903 C164.664262,318.955518 153.602649,312.881167 142.579984,305.408545 C141.943811,304.985812 141.015519,305.857293 141.495894,306.494644 C156.023999,325.784286 184.560886,332.229341 207.196947,327.137032 C208.255071,326.896399 209.306703,326.636256 210.351844,326.350098 C205.288429,340.937645 206.307604,356.949478 212.903026,371.153314 C216.869368,379.699028 222.919499,387.093607 230.287417,392.927325 C238.408355,399.35287 248.483252,404.542733 254.117924,413.563209 C259.278713,421.829269 257.746705,431.116392 248.911695,435.890026 C246.685091,437.099693 245.828205,441.008349 248.035335,442.725297 C248.879237,443.375655 249.72314,444.039021 250.586517,444.68938 C255.533084,448.428943 269.119914,455.452818 271.320552,455.712961 C290.86014,458.034742 303.999052,443.661813 312.418602,426.70696 C322.305244,406.805982 319.734587,382.554103 308.841754,363.602648 C300.104117,348.39726 282.894999,333.412994 289.7371,314.168878 C292.177926,307.294586 297.169933,301.434853 302.019127,296.140933 C307.549934,290.112107 313.496201,284.466993 318.799803,278.223548 C324.070948,272.025629 328.744869,265.281409 331.354475,257.503118 C335.165019,246.134847 333.269485,233.843066 330.406708,222.494305 C324.272186,198.131865 316.307045,174.094605 307.822579,150.467071 Z" id="ðŸ–-Ink" fill="#000000"></path>
        </g>
        <g id="FACE" transform="translate(340.4305, 273.0313)" fill="#000000" fill-rule="evenodd">
            <path d="M116.361219,150.179071 C111.946135,151.914276 106.729836,152.324139 102.172669,150.845712 C97.8151736,149.431708 93.8583927,146.284817 91.4642119,142.327167 C89.3317646,138.802171 88.4412118,134.619021 89.7014942,130.448806 C89.7617853,130.249198 89.957375,130.121547 90.1460567,130.071755 C91.1771152,131.010203 91.8141298,131.942264 92.4505873,132.869772 C93.5235979,134.433468 94.5989911,135.981114 96.0752023,137.31801 C98.2230215,139.262925 101.1168,140.842555 103.988766,141.363502 C106.800737,141.874703 109.678702,141.422935 112.196562,140.077333 C113.727788,139.259628 114.965847,138.16615 116.191803,137.067816 C117.526768,135.871821 118.840582,134.65762 120.679158,133.982272 C122.152519,133.440976 123.700164,133.897735 124.889096,134.803202 C126.166958,135.776396 127.085865,137.299763 127.034922,138.892379 C126.956025,141.359868 125.875632,143.418168 124.308014,145.116341 C122.188695,147.412162 119.192115,149.066356 116.361219,150.179071 Z M111.119516,88.6875754 C116.031901,91.6727519 123.516866,98.6336009 118.232271,106.034217 C112.011797,112.559585 103.055719,105.077805 98.6423193,101.694087 C94.5500081,99.0716872 89.9520671,105.816304 93.7489158,108.878398 C125.640236,132.483324 138.58241,89.4681574 113.604132,85.1777397 C110.853934,84.7049542 109.832503,87.7640784 111.119516,88.6875754 Z M59.4504683,47.3255023 C66.1457042,47.0055258 72.0459947,50.0114841 78.426375,51.3772375 C84.3227623,52.6402342 90.1319789,51.8819159 95.8663847,50.2755297 C105.172841,47.6682414 109.020064,61.9110986 99.8404613,64.6868298 C93.1556338,66.7081449 86.116919,66.8486224 79.2570995,65.8067476 C73.1636021,64.8806367 68.0556549,61.9150007 62.2457879,60.1882982 C57.2598071,58.7072044 51.3944123,59.3227463 46.1289396,60.0200492 L44.084993,60.294957 C41.0470264,60.7040327 37.9927967,61.1144091 34.9847544,61.7081866 C32.3748354,62.2239211 29.7694701,63.1675917 27.1055572,63.276852 C26.8030616,63.2898592 26.5467535,62.8970425 26.7373583,62.6349479 C29.8318485,58.3877293 35.7959563,55.0364887 40.5401,52.8013067 L40.8616259,52.65064 C46.7176805,49.9210842 52.9302245,47.6363738 59.4504683,47.3255023 Z M56.997539,78.643907 L56.9967001,78.4973902 C57.0058075,74.3501911 59.4218756,64.8812323 65.3937958,64.8812323 C69.12456,64.8812323 71.3896112,71.3255104 71.7817271,77.9686357 L71.7953464,78.239493 C71.9685032,82.369613 70.8348173,91.3973358 65.3937958,91.3973358 C59.8951935,91.3973358 57.0540747,82.846958 56.997539,78.643907 L56.997539,78.643907 Z M144.919863,78.643907 L144.920702,78.4973902 C144.911594,74.3501911 142.495526,64.8812323 136.523606,64.8812323 C132.886111,64.8812323 130.641959,71.0073241 130.168589,77.4708717 L130.135675,77.9686357 C129.900122,81.9593138 130.960314,91.3973358 136.523606,91.3973358 C142.022208,91.3973358 144.863327,82.846958 144.919863,78.643907 L144.919863,78.643907 Z M144.828315,42.2743427 L145.255459,42.283726 C152.234325,42.5256595 159.412904,46.6586895 161.276016,53.6012694 C161.372294,53.9615682 160.927984,54.204152 160.66452,53.9570157 C154.926132,48.5858865 147.208673,53.7181482 141.462526,56.4082858 L139.35195,57.383047 C131.944236,60.8285013 123.519048,64.8792372 115.294083,62.3115245 C111.387662,61.0921018 108.906547,57.0793881 110.020902,53.0263523 C111.012249,49.4201226 115.366287,46.3894469 119.137489,47.6910814 L119.308493,47.7532433 C122.37248,48.924973 126.139851,47.7377973 129.304279,46.5673322 L131.903733,45.5914418 C136.083717,44.0057433 140.283029,42.231679 144.828315,42.2743427 L144.828315,42.2743427 Z" id="ðŸ–-Ink"></path>
        </g>
        <g id="FACIAL-HAIR" transform="translate(317.0114, 371.8856)"></g>
        <g id="MASK" transform="translate(251.9586, 334.8154)"></g>
        <g id="ACCESORIES" transform="translate(267.5713, 308.801)" fill="#000000" fill-rule="evenodd">
            <path d="M229.626946,69.1951819 C219.863819,73.8959751 206.24306,66.9625002 199.678581,59.6999438 C197.289191,57.055585 195.445594,49.4899614 196.36479,44.6916144 C198.854361,31.6967957 208.208957,23.8976933 218.084625,21.2344741 C231.774339,17.541737 245.551225,26.8964976 243.945071,37.9356874 C242.422185,48.398009 240.114761,63.574131 229.626946,69.1951819 M163.174843,44.2331114 C162.392258,58.3946737 151.016471,70.7898616 137.420433,74.4624376 C115.514547,80.5732086 104.688457,65.1785661 99.7847761,48.593767 C99.2975305,46.9457579 98.1519504,41.9158831 101.225696,37.601403 C113.314461,20.6302908 142.726791,23.5230866 157.417018,28.1822569 C161.717009,32.2931747 163.474736,38.2263978 163.174843,44.2331114 M240.234458,19.807587 C240.227953,19.8160416 240.220147,19.8231956 240.213641,19.8316502 C240.163551,19.8010834 240.114111,19.7698661 240.062719,19.7399496 C240.119315,19.7633626 240.179163,19.7835237 240.234458,19.807587 M258.562439,21.44454 C257.290006,7.02608598 212.037315,12.5469816 206.746569,13.7286835 C192.307446,17.9742256 179.83617,29.5245974 163.692663,24.4472464 C146.965633,5.80601292 90.6370489,11.151962 78.8286616,20.6478505 C76.5934468,19.7711669 73.8755401,20.2413763 70.9956519,21.0686326 C56.2065445,20.5346881 -11.307871,25.6315498 2.50154102,44.5017096 C4.59754278,45.9552614 6.69159296,44.4763456 6.74948996,41.4820938 C78.7388887,15.5022119 71.7606731,39.8366861 80.2982048,36.9946183 C81.6018632,37.3698753 82.9621176,37.6072562 84.1519336,37.856994 C90.7599988,39.9823665 93.0036704,39.3255041 93.8740771,46.7415452 C99.8543826,104.006286 176.132063,84.2418825 169.875934,37.2703704 C176.070263,36.9295824 181.488512,34.2520553 188.03868,36.8664976 C192.586523,81.1149575 228.20359,82.9008427 238.922343,67.562131 C247.005155,56.9157579 243.800003,40.8492947 254.910374,32.4739744 C259.296235,36.1432986 259.578564,23.7591669 258.562439,21.44454" id="ðŸ–-Ink"></path>
        </g>
    </g>
</svg>