
<svg width="451.417692px" height="512.799072px" viewBox="0 0 451.417692 512.799072" version="1.1" xmlns="http://www.w3.org/2000/svg" xmlns:xlink="http://www.w3.org/1999/xlink">
    <g id="Blog-Hero" stroke="none" stroke-width="1" fill="none" fill-rule="evenodd">
        <g id="Person" transform="translate(-0, 0)">
            <g id="BODY" transform="translate(0, 181.7231)">
                <path d="M440.374943,105.237605 C433.939153,105.869557 427.503363,106.500607 421.067573,107.132559 C390.244808,109.487728 359.434225,114.406314 328.847417,117.358277 C328.085859,116.118714 326.595229,116.322904 325.690203,117.184287 C322.638109,116.916992 319.217418,114.583909 316.452712,117.010748 C316.362931,116.998127 316.273151,116.983253 316.182468,116.974688 C311.259867,107.525613 307.857222,97.4472898 304.554734,87.3554444 C302.446917,81.1508684 299.610929,75.1446225 294.37026,70.9787895 C285.426475,64.769706 264.933909,52.1789017 254.431818,52.7080823 C254.257671,50.8275527 253.381068,48.889327 251.941869,47.637143 C255.113971,42.2285918 242.430525,38.6996688 241.535876,39.3266623 C242.109299,21.2569897 233.610357,5.56457354 214.870094,1.96623498 C198.081097,-1.53248778 174.201676,-2.12026599 165.17217,15.4269871 C164.17962,15.3152011 154.03378,15.2623731 153.052057,15.3723562 C151.525784,13.4390887 134.764314,31.7585136 141.634119,38.1361776 C80.215523,65.308299 45.2927798,62.0661065 28.2930905,138.454286 C25.9948841,145.630228 25.827504,153.482747 23.4007171,160.498673 C14.7668781,180.661179 7.76398061,202.13086 6.02115153,224.069772 C1.81183356,225.148417 1.32773944,232.57092 6.20341996,233.644607 C8.06580631,234.05524 9.62320884,234.615973 10.9811989,235.679293 C9.91962062,253.657914 14.2674445,294.727564 17.0068849,294.600904 C22.5926905,312.379842 47.5083358,317.39751 65.1477692,311.149662 C62.1069543,316.871034 65.1477692,320.468364 65.1477692,323.52531 C128.619141,325.926907 198.018385,324.543786 261.472162,327.837418 C269.588972,327.722026 278.126263,329.831086 286.132088,328.617215 C291.014536,327.446617 291.022657,319.76899 286.070279,318.81971 L307.709847,314.119229 C307.226204,313.936675 316.629799,307.681273 323.736914,295.991969 C330.352266,282.915707 325.849913,267.131428 328.847417,252.907556 C352.258985,250.992769 376.057647,250.174066 399.212956,246.208817 C402.370171,255.65609 416.037145,244.357586 420.381359,239.812672 C420.375945,239.80546 420.370532,239.798699 420.365118,239.791487 C422.467521,239.21633 424.153504,237.24565 424.209899,234.912567 C425.684288,232.805761 425.993783,229.836219 424.579849,227.80018 C431.060304,190.402341 440.939795,152.218393 444.510722,114.468968 C445.773066,114.189503 446.961871,113.635982 447.969762,112.783163 L447.888102,112.701577 C449.59574,110.797608 449.927794,107.511189 447.080978,105.893446 C444.784576,104.587172 442.867148,104.992397 440.374943,105.237605 Z" id="âœ‹-Skin" fill="#D08B5B"></path>
                <path d="M195.605634,245.208089 L200.56338,248.36334 L241.126761,261.435095 L265.915493,264.590346 L286.197183,261.435095 L286.197183,296.142857 L290.253521,328.596869 C288.450704,331.90237 271.323944,331.90237 238.873239,328.596869 C218.186765,326.489698 142.583029,325.467407 125.369703,325.017565 L124.394366,324.990868 C104.166913,324.407364 84.1856926,324.407364 64.4507042,324.990868 L64.4507042,312.820613 L120.788732,284.874103 L171.267606,256.476843 L195.605634,245.208089 Z M166.863792,12.5902983 L170.589207,15.3723562 L162.455397,28.7371482 L202.078109,60.7902941 L202.078109,86.3924705 L214.622337,98.2582877 L221.792524,86.3924705 L231.895946,72.9550049 L239.076064,51.1729383 L236.631333,36.8225766 L241.547747,36.3593473 C241.571533,37.3401291 241.567511,38.329778 241.535876,39.3266623 C242.430525,38.6996688 255.113971,42.2285918 251.941869,47.637143 C253.381068,48.889327 254.257671,50.8275527 254.431818,52.7080823 C264.933909,52.1789017 285.426475,64.769706 294.37026,70.9787895 C299.610929,75.1446225 302.446917,81.1508684 304.554734,87.3554444 L305.051036,88.8690428 L305.563434,90.4228531 L306.079693,91.9754622 C308.93185,100.510591 312.011561,108.968512 316.182468,116.974688 C316.273151,116.983253 316.362931,116.998127 316.452712,117.010748 C319.217418,114.583909 322.638109,116.916992 325.690203,117.184287 C326.574181,116.342936 328.016844,116.128566 328.793118,117.274128 L328.847417,117.358277 L290.820933,124.850142 L265.734454,212.856407 L243.887635,195.12114 L232.161172,196.865215 L201.193761,208.035382 L165.1767,217.391913 L82.9545647,240.062417 L72.4838533,240.062417 L11.5556032,225.347538 L6.06468782,223.534924 C7.87792383,201.781946 14.8370517,180.497303 23.4007171,160.498673 C25.827504,153.482747 25.9948841,145.630228 28.2930905,138.454286 C45.2927798,62.0661065 80.215523,65.308299 141.634119,38.1361776 C134.764314,31.7585136 151.525784,13.4390887 153.052057,15.3723562 L153.148267,15.3640097 L153.356274,15.3528742 L153.624275,15.3435206 C156.020321,15.2738403 164.281508,15.3266762 165.17217,15.4269871 C165.688801,14.423007 166.254045,13.4783946 166.863792,12.5902983 Z" id="ðŸ‘•-Top" fill="#F16A41"></path>
                <path d="M446.452869,107.909787 L445.320198,114.222412 C445.051004,114.310576 444.777118,114.385235 444.49968,114.446656 C444.143698,118.209856 443.725022,121.977374 443.25327,125.748001 L436.230898,164.890918 C435.019677,171.815892 433.869853,178.755609 432.728437,185.69777 L431.215903,193.154574 L430.279192,197.789093 C428.257087,207.8257 426.292685,217.829597 424.568807,227.777868 C424.828989,228.152525 425.030815,228.558792 425.177764,228.985476 L425.045103,229.54621 L424.952866,229.920095 L424.858499,230.28942 C423.49837,235.518423 421.13171,240.589109 415.554391,242.12786 C411.347389,243.287946 406.731359,243.393085 402.387241,243.850966 L401.905714,243.903365 L325.890391,252.452743 C316.705399,253.485502 307.524734,254.549417 298.344935,255.62464 L290.386989,256.558088 C279.295049,257.84266 268.13932,258.853579 257.210729,261.178816 C256.809151,261.264458 256.476531,261.424925 256.205207,261.635876 C258.405996,253.304661 260.512588,244.984264 262.421771,236.568758 C264.570729,227.097145 266.610165,217.607051 268.908757,208.169695 C273.539292,189.157053 278.730053,170.269269 284.412531,151.543755 C285.60502,147.613589 286.825051,143.691249 288.071843,139.778039 L288.946693,137.042637 L289.620099,134.862866 C290.662027,131.539286 291.951388,128.123309 295.006785,126.290026 C298.582447,124.144322 303.4585,123.788614 307.513938,123.046566 L310.260154,122.530657 C314.368938,121.764006 318.482991,121.026467 322.602053,120.318038 C342.323067,116.925692 362.155855,114.204513 382.061658,112.160361 C402.775152,110.032966 423.560824,108.650645 444.3717,107.974998 L446.452869,107.909787 Z M257.780238,238.421368 L257.974222,238.437569 L255.134785,261.137797 C254.680926,260.820019 254.104475,260.625295 253.400926,260.627098 C244.087236,260.654523 235.159259,257.677518 226.523776,254.404697 L225.208756,253.903515 L221.542425,252.494198 C217.815628,251.066164 214.068869,249.669632 210.252306,248.511384 L208.709489,248.045744 L207.92526,247.814132 C205.035603,246.970491 201.99588,246.203608 198.990074,246.012747 L198.580419,245.990338 L199.455686,245.531024 C199.583686,245.463862 199.695912,245.388587 199.795517,245.307452 C201.450053,245.430056 203.107743,245.3967 204.852869,245.082077 C208.134898,244.491143 211.326334,243.349393 214.256813,241.759597 L215.565642,241.050144 L216.101425,240.765858 L216.455384,240.582335 L216.807379,240.404307 C219.32425,239.149549 221.730875,238.363905 224.908757,239.032108 C228.516281,239.791549 231.677649,241.735934 234.929605,243.379061 L235.506746,243.666463 L235.894773,243.853968 L236.290365,244.040056 L236.690689,244.222981 C241.088267,246.201997 248.086962,248.337859 249.773207,242.358193 C250.450616,239.955695 249.920137,237.706001 248.7447,235.733518 C250.935123,235.543909 254.848243,238.126685 257.780238,238.421368 Z M367.246198,163.629367 L367.29919,163.901724 C367.921025,167.249697 366.361603,170.452354 364.001805,172.78716 C362.06603,174.701946 358.640227,175.766167 357.669861,178.520702 C357.117298,180.08796 357.705016,181.574083 358.839889,182.610358 L358.578503,182.739464 L358.322966,182.870096 L358.073487,183.00202 L357.830237,183.135023 L357.593353,183.2689 C353.738024,185.483966 350.598328,189.086299 354.075495,193.437377 C358.01998,198.37339 366.262057,198.533324 372.069059,198.147118 L372.460257,198.119734 C378.091043,197.697473 384.761082,195.80592 387.814312,190.606215 C389.21465,188.220845 389.060509,185.336044 387.108509,183.294597 C385.930819,182.063147 383.830086,180.798342 381.903776,180.648693 C381.988058,179.563287 381.858706,178.514842 381.47696,177.630019 C380.651269,175.717486 378.454086,174.429693 376.334875,174.383266 C376.506477,170.322167 373.254077,166.313532 370.859297,163.066977 L370.614796,162.733875 L370.377467,162.406383 C369.278691,160.877439 366.927637,161.73401 367.246198,163.629367 Z M370.459495,167.951963 L372.641354,176.125866 L372.603884,176.193096 C371.835335,177.652684 373.850007,179.309539 375.044995,178.083135 L375.165304,177.953461 C376.583551,176.488554 378.760531,178.457692 378.787607,180.016741 C378.826368,182.211571 377.397704,183.908545 375.695523,185.029606 L375.576337,185.106884 L375.262508,185.301875 C373.865574,186.225173 374.923157,188.155561 376.458819,187.920645 C378.358988,187.629912 379.916171,186.122603 380.876171,184.240721 C381.901974,184.53461 383.069298,184.499001 384.149636,185.103457 C386.871948,186.626114 385.306277,189.28988 383.533537,190.899855 L383.461566,190.964541 L383.317185,191.090321 C380.064801,193.864084 375.636665,194.827612 371.462605,195.034121 L371.222086,195.045203 C367.005748,195.225503 361.512565,195.285903 357.898819,192.805876 C355.649805,191.262507 354.998537,189.073664 356.901861,187.000664 C357.978143,185.829165 359.064791,184.647298 360.183438,183.505097 C361.857805,184.304277 363.353241,183.980188 365.065467,183.223829 C365.28496,183.126467 365.163269,182.790658 364.948283,182.790658 C364.003607,182.789756 360.537241,181.035887 360.368678,179.915323 C360.212933,178.878146 362.130436,178.003747 363.062867,177.502647 L363.198134,177.428529 L363.315382,177.360471 C364.290706,176.769537 365.208791,176.081692 366.048002,175.309107 C368.177937,173.348264 369.724921,170.888911 370.400488,168.197288 L370.459495,167.951963 Z" id="ðŸ’»-Computer" fill="#B5D2C8"></path>
                <path d="M166.342222,11.3516647 C168.25456,6.54531574 174.71901,8.41367517 173.998334,13.4629785 C173.56701,16.4875121 171.910672,19.6819785 170.422898,22.3328402 C169.211405,24.4905812 167.829545,26.596486 165.955968,28.2137776 C169.291179,31.3257567 172.753038,34.3241468 176.302785,37.1710848 C180.176137,40.2772042 184.249151,43.1403692 188.459179,45.7718487 C192.150898,48.0796895 196.009376,50.1242923 199.489264,52.7575747 C202.724869,55.2055988 205.672475,58.1498989 207.172419,61.9934456 C208.770264,66.0864127 208.075865,70.3133205 206.899246,74.4035252 L206.764081,74.8659687 C205.562053,78.9182127 203.481151,83.8029922 206.36656,87.6208461 C207.835405,89.5644808 209.970841,90.9410718 211.814672,92.4948076 C213.453433,93.8759061 214.991686,95.3778056 216.402391,96.9910405 C219.478447,100.507793 221.980306,104.464929 223.559123,108.874167 L223.700312,109.274741 C225.053553,113.177973 226.042548,117.959562 224.213996,121.791765 C223.689376,122.890243 221.997433,122.533249 221.703574,121.463619 C221.039236,119.040386 221.07394,116.502663 220.516869,114.045173 C219.937264,111.489419 218.972757,109.063482 217.713038,106.768262 C215.275701,102.328029 211.974801,98.5352141 208.074945,95.3286513 L206.907517,94.379188 C203.865182,91.8822012 201.069945,89.2332252 200.452419,85.1007019 C199.791686,80.6792936 201.562954,76.467484 202.701883,72.2827195 C203.495574,69.366366 203.754729,66.5708135 202.897038,63.9352773 C201.849151,65.6458741 200.419517,67.2694762 199.2887,68.7177365 C197.036531,71.6029883 194.763179,74.4706608 192.495686,77.3437424 C190.170954,80.2898454 187.903461,83.2823758 185.744137,86.3524351 C184.778278,87.7258709 183.822785,89.1074201 182.870447,90.4903216 C182.154278,91.5297515 181.155517,92.5682799 180.374898,93.6284442 C180.564644,94.195488 180.550222,94.8490757 180.206334,95.3133484 C176.066616,100.907158 170.177264,89.2354332 168.641264,86.2866256 C165.513376,80.2812812 163.185489,73.9013634 160.047236,67.8973712 C156.795405,61.6734129 153.092419,55.6153307 148.96532,49.9331742 C146.468869,46.4962042 143.670898,43.2679315 141.387179,39.72188 C136.007123,44.6007998 128.927461,47.8714429 122.4247,50.837379 C115.279965,54.0956588 107.857245,56.7574356 100.531858,59.5839375 L98.3679869,60.4244685 C85.746128,65.3508982 72.8158221,70.7631728 62.3246441,79.5136536 C49.9965314,89.7966171 42.7032356,104.128669 37.2736018,118.970069 C31.0232356,136.055754 25.852306,153.602556 21.0320243,171.13809 C18.5653201,180.110272 16.2248131,189.123022 14.024475,198.164619 C12.0855455,206.130276 10.4783342,214.175265 8.23382716,222.058885 C12.7859398,221.897967 17.9776018,223.660401 21.8640243,224.169297 C39.5762497,226.487956 57.0500525,230.184108 73.7725314,236.583408 C75.8381088,237.374024 76.4357426,239.437107 75.9859398,241.10939 C77.1771511,240.77313 78.367461,240.432363 79.5586722,240.097907 C78.2535864,238.09801 78.8764883,234.522504 78.979093,232.305844 L78.9853765,232.153435 C79.0908412,229.199669 79.4112919,226.242748 79.6190666,223.294391 C80.0147156,217.674022 80.5297985,212.094749 81.2146531,206.506583 L81.3894328,205.109327 C82.1655455,199.029609 82.7392919,192.914281 83.5861652,186.84493 L83.6862215,186.150324 C83.280137,184.59749 82.8073483,183.063587 82.3111229,181.536446 C80.9887567,177.468425 79.1223905,173.639303 77.4867849,169.699296 C77.2938835,169.235474 77.9546159,168.96908 78.2633483,169.247193 C81.0333765,171.739391 83.2337145,174.900952 85.0013765,178.207656 C85.0320243,178.051696 85.0590666,177.895286 85.0910666,177.739326 L85.2927747,176.746415 C85.7901796,174.324963 86.3951998,171.777267 87.880475,169.813335 C88.0386722,169.604638 88.351461,169.560915 88.5010948,169.813335 C89.9226159,172.218989 90.0817145,175.265609 90.300306,178.003015 C90.5477426,181.099669 90.5788412,184.235538 90.5351229,187.340755 C90.4499398,193.409205 90.0222215,199.494783 89.6814891,205.553316 C89.3472257,211.507036 88.6907757,217.384893 87.8447809,223.280083 L87.683968,224.385658 C87.2704093,227.191615 86.9318365,230.032418 86.3863582,232.819185 L86.2322497,233.577806 C85.9406441,234.959806 85.7612638,236.908399 85.1807567,238.527042 C100.116193,234.360759 115.074616,230.289583 130.061433,226.290077 C140.893207,223.398965 151.73625,220.551126 162.574785,217.685256 C163.146729,216.654391 163.858841,215.691588 164.74763,214.831106 C167.675855,211.994986 171.556419,210.729731 175.11563,212.912714 C175.404982,213.09076 175.42932,213.544215 175.11563,213.71595 C174.433714,214.088721 173.750447,214.470957 173.079348,214.86942 L179.587517,213.106536 C184.451968,211.788092 189.37456,210.1406 194.353489,209.221521 C203.523968,204.695538 213.387179,201.419486 223.047574,198.181748 L224.185945,197.796654 C229.132304,196.110137 234.248572,194.222101 239.35901,193.287052 C243.100306,192.602813 247.491968,193.428587 248.996419,197.261766 C250.901095,198.517106 252.693095,199.992411 254.422447,201.443376 C255.6727,202.491821 256.871123,203.606526 258.089827,204.691932 L258.314501,204.88919 C259.310812,205.753719 260.100061,206.332725 260.3447,207.708803 C260.470898,208.419636 260.019292,209.380635 259.142672,209.286429 C256.460531,208.999301 254.279574,205.890026 252.460531,204.033386 C251.055236,202.598198 249.638672,201.114328 248.355968,199.537153 C247.60825,199.944181 246.583348,199.871159 246.107405,198.969659 C243.639348,194.29583 236.878334,197.53447 233.137489,198.642865 L227.778645,200.229159 C225.099396,201.023439 222.421185,201.821645 219.747517,202.633807 C212.399236,204.865471 205.08701,207.363078 197.672024,209.412639 C198.335461,210.141952 198.243968,211.439211 196.983799,211.932783 C191.17963,214.210423 184.812081,215.388234 178.782109,216.950984 C174.97501,217.938578 171.170165,218.932031 167.366672,219.931344 C166.714503,220.987903 166.24532,222.183292 166.047912,223.574758 C165.322076,228.691012 166.721956,234.594055 168.08557,239.54243 L168.290978,240.280733 C169.411914,244.259158 171.061055,249.136199 174.493207,251.64838 C175.331067,252.260949 176.397883,252.687359 177.473264,252.783819 C184.191912,249.325213 190.910109,245.867058 197.632362,242.415213 C198.877658,241.775599 200.028306,242.64149 200.307743,243.671003 C202.677996,243.282006 205.042841,242.668986 207.196757,241.937869 C210.815912,240.708673 213.641827,238.364322 217.034729,236.742973 C223.599722,233.606618 230.303865,237.459142 236.181772,240.388058 L237.536482,241.053953 C240.172358,242.332978 245.656118,244.790098 246.920926,241.291944 C248.144137,237.907712 244.276644,234.290892 241.778841,232.767808 C238.801489,230.951735 235.334672,229.979918 231.969714,229.170371 C230.048362,228.707901 228.103574,228.330623 226.147067,228.055215 C223.927799,227.742845 221.635517,227.789723 219.498729,227.069875 C218.436869,226.712881 218.273714,225.026174 219.498729,224.74761 C222.788007,223.998963 226.713887,224.815576 230.146375,225.650072 L231.940419,226.092198 C235.398672,226.94096 238.890278,228.006083 242.04025,229.6991 C244.330729,230.93055 246.748306,232.801163 248.327574,235.090974 C249.699032,233.816877 251.405954,233.859951 253.184015,234.332493 L254.149102,234.6008 C255.742734,235.042477 257.034471,235.346485 258.585151,235.04049 C258.792475,233.912262 259.002503,232.783584 259.227405,231.654905 C261.437207,220.560141 263.860644,209.507747 266.534672,198.514401 C271.147121,179.55236 276.484308,160.798432 282.5013,142.236687 L283.105264,140.381153 C284.492982,136.135537 285.609827,131.509939 287.847123,127.609598 C289.963179,123.92156 293.353376,121.797174 297.38132,120.672102 C301.952362,119.395577 306.755517,118.727566 311.418503,117.865281 C312.458729,117.673261 313.501658,117.490707 314.542785,117.301843 C313.662935,115.713099 313.006205,113.909656 312.414646,112.525648 L312.310898,112.285895 C311.040047,109.388157 309.898431,106.438209 308.796024,103.472525 L307.97138,101.242992 C305.980927,95.8741988 303.926157,90.5935756 301.127574,85.5721866 C298.181771,80.2875917 294.273714,75.9671514 289.402053,72.3913503 C279.469433,65.1000157 267.497376,61.3808761 257.863574,53.588758 C257.468757,53.2696269 257.974898,52.7237684 258.375574,52.9257045 C264.880588,56.1945447 271.90301,58.4171938 278.668982,61.0784227 L280.003677,61.6050942 C285.351446,63.7252704 290.78249,66.0333459 295.411292,69.4659818 C300.571855,73.2937521 304.636306,78.0473634 307.691179,83.7002212 C310.701883,89.2723947 312.627743,95.5094247 314.751912,101.46113 L315.320035,103.046987 C316.176819,105.425012 317.061771,107.795932 318.075855,110.110124 C318.880813,111.947382 320.38301,114.044722 321.065827,116.143415 C322.933996,115.819326 324.801714,115.494335 326.671686,115.181965 C367.175123,108.418909 408.131067,104.445096 449.178053,103.282611 C450.783912,103.237085 451.61456,104.769636 451.37794,106.170568 C447.438785,129.465787 443.938165,152.840789 440.097264,176.153587 C438.420644,186.328371 436.710672,196.495491 434.960588,206.657654 C434.074053,211.806122 433.049151,216.934757 432.209489,222.090888 C431.53163,226.254918 431.039461,230.451402 429.875743,234.518972 C428.831912,238.165992 427.230109,241.682744 424.599348,244.465225 C421.763517,247.464517 417.805433,248.916383 413.821207,249.602425 C403.706954,251.343222 393.332644,252.054055 383.136362,253.213835 L328.850391,259.390464 C329.643692,266.601845 329.702979,273.701033 329.338994,280.996367 L329.131553,284.978903 C328.961968,288.182216 328.759236,291.390345 328.299179,294.560697 C327.722278,298.537665 325.903236,301.90522 323.223799,304.875663 C320.763405,307.603603 317.774334,309.931277 314.866841,312.161589 C311.848926,314.477543 308.730503,316.712813 305.182109,318.144847 L304.721545,318.327662 C301.608592,319.543181 295.769011,321.425436 291.514053,320.737562 C292.070222,323.52455 293.146503,326.521137 292.192362,329.278827 C291.749771,330.559408 290.075405,331.198121 289.049602,330.108658 C287.017376,327.949114 286.858729,325.096766 286.377376,322.279578 C285.876644,319.347899 285.444869,316.405853 285.06132,313.456594 C284.319461,307.754154 283.742109,301.999427 283.565883,296.248756 C283.3847,290.343027 283.45456,284.429185 283.772757,278.529767 C283.936362,275.500275 284.139179,272.472586 284.52363,269.462477 C284.687686,268.17874 284.855348,266.894102 285.046898,265.613521 C285.116757,265.146544 285.194278,264.681821 285.277658,264.217999 L280.405176,264.767776 C272.933986,265.601933 265.459244,266.355198 257.935236,266.4722 C257.044193,266.485723 256.358672,266.080048 255.910672,265.489114 C255.433376,266.266658 254.602278,266.822884 253.411968,266.818376 C242.9047,266.779161 233.119912,263.343093 223.563179,259.293553 C218.746053,257.251655 214.003743,255.041176 209.179405,253.016857 C204.676419,251.127312 199.862447,249.779119 195.468081,247.650676 L183.921038,253.707857 C183.836306,254.005803 183.727686,254.287522 183.612306,254.523264 C182.860531,256.058069 181.378165,256.890604 179.86425,257.517598 C178.411179,258.120701 176.906278,258.308213 175.440137,258.15586 C166.682841,262.745398 157.923517,267.330626 149.158362,271.905078 L140.391123,276.475699 C122.92363,285.571386 105.525095,294.816272 87.94763,303.698304 L86.6535736,304.349794 C80.5822496,307.394455 74.062875,310.480712 67.3252074,312.783624 C67.2053201,314.489263 67.2810384,316.148024 67.4239117,317.953278 L67.4583051,318.346538 C67.6591902,320.479864 68.0899199,323.152946 66.3787286,324.671709 C65.4885877,325.461423 63.8985032,325.464579 63.2932074,324.273697 C62.1948412,322.114153 63.1809821,318.709637 63.5289257,316.363482 C63.6524187,315.529144 63.8029539,314.671366 64.0256018,313.839281 C56.3014328,316.139009 48.3433483,317.254164 40.4830666,315.962765 C32.8301088,314.706524 26.9028976,309.88485 22.1245314,303.987235 C17.0816018,297.763727 13.4980525,290.510706 11.5753483,282.735717 C9.38717927,273.888393 9.24430603,264.751687 9.29568631,255.689355 C9.35022152,246.039245 9.70717927,236.341355 10.8808131,226.756153 C9.59495392,226.453699 8.16892575,226.192264 6.86954547,226.282414 C6.22593983,227.312378 4.97748913,227.746 3.84937645,227.612127 C1.39619335,230.31798 7.61861589,233.083333 9.60712293,233.775685 C10.2976018,234.016386 10.2236863,235.137852 9.42729194,235.104046 L8.92564784,235.080198 C5.8530342,234.916717 2.67861006,234.392055 0.872024339,231.536358 C-0.575637633,229.247449 -0.140708055,226.535736 1.58503842,224.669179 C2.72486941,213.890842 5.44982716,203.395124 7.98593983,192.880926 C10.4747286,182.561001 13.2425032,172.307336 16.176137,162.105508 L17.4913031,157.539369 C22.1102545,141.542891 26.9382093,125.417345 33.3096581,110.056485 C36.4911793,102.38652 40.156306,94.8576399 45.1244187,88.1698598 C49.7554046,81.9355343 55.2228976,76.6009061 61.5075173,72.0447234 C73.2235803,63.5500118 86.9711679,58.4173063 100.478755,53.5271997 L101.083405,53.3083914 C108.083292,50.776077 115.066053,48.2135623 121.986165,45.4698461 C128.106278,43.0434579 133.969489,39.9670881 140.060757,37.5041892 C139.862898,37.1449413 139.671799,36.7816367 139.487912,36.4142753 L139.375302,36.5089996 C139.356056,36.5243084 139.336325,36.5391331 139.315743,36.5531063 C138.703236,36.977713 137.801376,36.7690157 137.296588,36.2925728 C135.871268,34.9475251 136.353812,33.4544276 137.305204,32.0595053 L137.429095,31.8819824 C138.592813,30.2516191 139.630785,28.5279504 140.704813,26.8385388 L141.377378,25.7820423 C143.180175,22.9596167 145.074691,20.1183547 147.478447,17.7856726 C148.591686,16.7047737 149.810391,15.8961279 151.101658,15.2934749 C150.991236,15.0599863 151.959348,14.5826419 152.233827,14.8228917 C156.324869,13.3254997 161.031574,13.6392218 165.491743,14.052109 M326.223686,259.688861 L320.535799,260.335688 C314.278222,261.047783 308.01821,261.736349 301.75742,262.418229 L288.15856,263.896163 C288.123855,264.671453 288.029658,265.429615 288.012531,266.01514 C287.923743,269.033813 287.857489,272.05384 287.794841,275.073415 C287.669095,281.126088 287.80701,287.184621 288.205433,293.225575 C288.59163,299.079129 289.10023,304.933476 289.890551,310.747388 L290.052419,311.90962 L290.146165,312.520837 C290.791123,312.58304 291.424813,312.889551 291.951686,313.519249 C293.101883,314.892684 297.266841,313.557562 298.893433,312.978799 C301.568362,312.026815 304.087348,310.418538 306.41163,308.805754 C308.681482,307.230992 310.725365,305.394701 312.689447,303.460352 L314.296453,301.870835 C315.895012,300.282155 317.495302,298.589704 318.474729,296.591326 C319.802954,293.881416 319.974672,290.55488 320.364081,287.603368 C320.84363,283.973026 321.414672,280.343135 322.018165,276.730823 M161.10594,221.581541 L160.515968,221.736599 C139.084531,227.431827 117.685095,233.295185 96.1878553,238.738895 C85.5494328,241.433479 74.8605314,243.931988 64.2090384,246.574736 L62.4845341,247.006083 C54.081644,249.130056 45.5778792,251.686341 39.1431229,257.781737 C38.9056018,258.006211 38.5608131,257.661387 38.7843624,257.42294 C45.7193483,250.039652 55.5825596,246.914151 65.0527567,244.204691 C66.8032919,243.703908 68.5560807,243.214844 70.3070666,242.716765 C57.4277426,238.124973 44.3451511,234.129975 30.9605877,231.280783 C27.5140525,230.546962 24.0274046,230.008315 20.5835736,229.271789 C18.1818159,228.757799 15.836279,228.014886 13.4598936,227.398592 L11.5906722,226.928339 L11.5658476,232.836603 C11.5347389,241.204809 11.5495938,249.566193 11.976475,257.933189 L12.057283,259.483123 C12.5553391,268.79441 13.3327627,278.299031 16.6367567,287.078695 C19.3216018,294.213168 23.6010384,300.934304 29.1974328,306.131003 C32.0292074,308.760228 35.0737145,310.807085 38.8370948,311.817667 C42.3314046,312.755678 45.992475,312.865661 49.5845877,312.615494 C66.8145596,311.413344 82.1520243,302.052615 97.1190103,294.302417 C121.599912,281.62597 146.083517,268.955834 170.589207,256.328068 C169.926672,255.875064 169.302898,255.353095 168.735461,254.766669 C165.449376,251.372521 163.715968,246.726188 162.577489,242.226349 C161.365545,237.436678 160.640813,232.303084 160.556531,227.358355 M192.287055,261.221457 C192.503393,261.105163 192.753985,261.250755 192.7639,261.495062 C192.839619,263.366888 191.805282,265.213081 191.032457,266.899352 L190.950717,267.079406 C190.0119,269.168182 188.983844,271.229012 187.920633,273.257388 C185.795562,277.310082 183.587112,281.319505 181.28221,285.272133 C176.647168,293.223817 171.49652,300.840593 165.408407,307.764116 C164.033309,309.328219 161.771675,307.322831 162.654154,305.638829 C166.908802,297.520818 171.868802,289.855812 176.974379,282.257516 C179.530323,278.453185 182.084464,274.645247 184.665647,270.858044 C185.742454,269.277789 186.833033,267.703169 187.953033,266.152442 L188.628689,265.22502 M446.463912,107.932099 C424.957658,108.58163 403.476644,109.984365 382.0727,112.182673 C362.166898,114.226825 342.334109,116.948004 322.613095,120.34035 C318.494034,121.048779 314.379981,121.786319 310.271196,122.55297 L307.80656,123.016453 C303.697038,123.79535 298.676644,124.116735 295.017827,126.312339 C291.16025,128.626941 290.117771,133.464391 288.834165,137.45353 C287.325207,142.144938 285.85456,146.849868 284.423574,151.566067 C278.741095,170.291581 273.550334,189.179365 268.919799,208.192007 C266.621207,217.629363 264.581771,227.119457 262.432813,236.59107 C260.52363,245.006576 258.417038,253.326973 256.21625,261.658189 C256.487574,261.447237 256.820193,261.28677 257.221771,261.201128 C268.150362,258.875891 279.306092,257.864972 290.398031,256.5804 L291.471236,256.455179 C302.945714,255.105633 314.420193,253.766004 325.901433,252.475055 L401.916757,243.925677 C406.399912,243.421738 411.202616,243.353224 415.565433,242.150172 C422.983015,240.103703 424.721649,231.81002 425.966176,225.205064 L426.003743,225.005439 C429.755855,205.049377 432.742672,184.919776 436.24194,164.91323 M257.985264,238.459881 C255.034053,238.265157 250.994841,235.562008 248.755743,235.75583 C249.931179,237.728313 250.461658,239.978007 249.78425,242.380506 C247.898954,249.066032 239.372982,245.606975 235.266165,243.564626 C231.898954,241.889188 228.647574,239.839176 224.919799,239.05442 C220.6967,238.166442 217.83563,239.845937 214.267855,241.781909 C211.337376,243.371705 208.14594,244.513455 204.863912,245.104389 C203.118785,245.419012 201.461095,245.452368 199.80656,245.329764 C199.706954,245.410899 199.594729,245.486174 199.466729,245.553336 L198.591461,246.01265 C202.549095,246.193852 206.580193,247.415385 210.263348,248.533696 C214.079912,249.691944 217.82667,251.088476 221.553467,252.51651 L225.219798,253.925827 C234.263369,257.389316 243.6247,260.67823 253.411968,260.64941 C254.115517,260.647607 254.691968,260.842331 255.145827,261.16011 M241.473399,217.511718 C244.389005,217.155174 247.08016,217.53741 249.40985,219.435519 C252.21954,221.724429 254.107089,225.520646 258.1463,225.769911 C259.323991,225.842482 259.597568,227.498538 258.427089,227.844714 C255.420441,228.734946 252.986188,227.108189 250.937737,224.995973 L249.560469,223.556857 C247.536146,221.460536 245.669145,219.839901 242.234188,219.965151 C238.55554,220.099474 234.870582,220.949589 231.215822,221.381858 C227.075653,221.871373 222.936385,222.288768 218.783145,222.648917 C218.590244,222.665595 218.557343,222.361789 218.738075,222.317165 L223.389885,221.159342 M238.659022,205.591089 L239.13988,205.542958 C243.373685,205.131811 247.24565,205.115859 251.026796,207.393639 L251.752015,207.832243 C255.161104,209.904501 258.871694,212.34588 261.003585,215.700964 C261.35243,216.250428 260.775979,216.896353 260.192317,216.756621 C256.094965,215.773084 253.099585,212.76658 249.653951,210.516436 C245.786909,207.991333 241.792317,208.407826 237.383078,208.799979 C233.114007,209.179961 228.847191,209.70193 224.620036,210.413665 C220.647979,211.081676 216.663303,212.136432 212.651134,212.472691 L212.652036,212.464578 C212.193669,212.463676 211.932261,211.775381 212.399641,211.541892 C216.471303,209.508558 221.187022,208.546207 225.616092,207.617211 M367.274143,163.74128 C366.864903,161.783672 369.272565,160.875861 370.388509,162.428695 L370.625838,162.756187 C373.036745,166.059449 376.523437,170.204441 376.345917,174.405578 C378.465129,174.452005 380.662312,175.739798 381.488002,177.652331 C381.869748,178.537154 381.9991,179.585599 381.914819,180.671005 C383.841129,180.820654 385.941861,182.085459 387.119551,183.316909 C389.071551,185.358356 389.225692,188.243157 387.825354,190.628527 C384.772124,195.828232 378.102085,197.719785 372.471299,198.142046 L372.27065,198.156506 C366.454762,198.558575 358.074368,198.449944 354.086537,193.459689 C350.239776,188.646128 354.491269,184.748942 358.850931,182.63267 C357.716058,181.596395 357.12834,180.110272 357.680903,178.543014 C358.651269,175.788479 362.077072,174.724258 364.012847,172.809472 C366.372646,170.474666 367.932067,167.272009 367.310232,163.924036 M370.470537,167.974275 C369.829185,170.761714 368.253523,173.311157 366.059044,175.331419 C365.219833,176.104005 364.301748,176.791849 363.326424,177.382783 L363.209176,177.450841 C362.343598,177.936805 360.215989,178.84727 360.37972,179.937635 C360.548283,181.0582 364.01465,182.812069 364.959326,182.81297 C365.174312,182.81297 365.296002,183.148779 365.076509,183.246141 C363.364283,184.0025 361.868847,184.326589 360.194481,183.527409 C359.075833,184.66961 357.989185,185.851477 356.912903,187.022977 C355.009579,189.095977 355.660847,191.284819 357.909861,192.828188 C361.523607,195.308215 367.016791,195.247815 371.233129,195.067515 C375.47696,194.886313 380.013298,193.939738 383.328227,191.112633 L383.472609,190.986854 C385.274221,189.384395 386.919778,186.669003 384.160678,185.125769 C383.08034,184.521313 381.913016,184.556922 380.887213,184.263033 C379.927213,186.144915 378.37003,187.652224 376.469861,187.942958 C374.934199,188.177874 373.876616,186.247485 375.27355,185.324187 L375.58738,185.129196 C377.341503,184.009517 378.838312,182.284926 378.79865,180.039054 C378.771573,178.480004 376.594593,176.510867 375.176347,177.975773 L375.111438,178.045836 C373.924687,179.383676 371.834369,177.697802 372.614926,176.215408 L372.652396,176.148178 M93.6843726,90.454532 C93.6791004,90.1196247 94.1500863,89.9943161 94.3145934,90.2841485 C97.0692976,95.131065 98.5092976,101.072403 99.9767905,106.41244 C101.513692,112.00625 102.754481,117.656854 103.869072,123.348927 C106.12665,134.875059 107.329579,146.334931 107.41126,158.082382 C107.422424,159.759623 104.690255,160.205866 104.422988,158.487156 C102.648565,147.060188 100.948509,135.621501 99.1605652,124.197689 C98.2609596,118.451977 97.2139736,112.728351 96.2120581,106.999768 M120.95572,98.8968572 C120.752903,98.2283947 121.725523,98.0048227 121.974312,98.6160399 C127.50265,112.187677 129.374875,127.568174 125.825579,141.886253 C125.282481,144.076448 122.074819,143.127618 122.484509,140.964919 M192.264971,86.8375775 C192.237027,86.3372448 192.886492,86.2583636 193.131224,86.6027367 C195.750717,90.2939298 196.837365,95.2373068 201.433196,97.1448815 C203.727731,98.0973166 206.309816,97.9314405 208.337083,99.5401679 C209.692351,100.616109 210.731675,102.314535 209.714436,103.943997 C209.386323,104.470473 208.467788,104.734162 208.022492,104.16216 C207.372576,103.328723 207.028689,102.330762 206.14576,101.706022 C204.900464,100.824806 203.22114,100.770265 201.793309,100.356026 C199.946323,99.8205345 198.318379,98.8834249 196.985196,97.4910576 M236.02754,25.2723623 C236.297512,25.1348835 236.556667,25.2227798 236.729286,25.4562684 C236.975822,25.788922 236.945624,26.1125606 236.643653,26.3406402 C237.047033,27.1650623 237.523427,29.2303995 237.591483,29.5310499 C237.867314,30.7498783 238.160723,31.9614947 238.467653,33.1722097 C239.08692,35.6139233 239.629568,38.0745684 240.249286,40.5171836 C240.906413,43.1062925 241.689286,45.6679057 242.560498,48.1925574 C242.616685,48.3560294 242.678482,48.5229071 242.74335,48.6922557 L242.842638,48.9480146 L242.866976,48.9092501 C243.044103,48.6293343 243.412779,48.8249598 243.369061,49.1206519 C243.328498,49.3902005 243.273962,49.6583969 243.227991,49.9279455 L243.319281,50.1694242 C243.889162,51.7034008 244.279438,53.3189615 243.23385,54.6725417 C242.842638,55.1787341 242.412216,55.478483 241.875878,55.5677315 C241.015934,58.4029501 239.936948,61.1854308 238.781793,63.8574778 L238.443228,64.6378332 C236.74402,68.5369019 234.931793,72.3847412 232.2263,75.7040936 C229.272385,79.3281249 225.209286,81.8027433 222.636216,85.7738522 C221.439145,87.6210264 220.606244,89.5633088 219.930188,91.6493806 L219.675869,92.4412029 C219.196009,93.9166924 218.642376,95.3468295 217.258413,96.2123245 C216.816723,96.4881836 216.155089,96.4002873 215.799033,96.0239109 C212.960948,93.0214641 215.931991,87.4150335 217.643314,84.5081457 C220.022131,80.4658183 223.465061,77.8798646 226.912498,74.830089 C230.628554,71.5427681 232.998807,67.1452495 235.29154,62.8130896 C236.695934,60.1590727 238.051653,57.4478105 239.479033,54.782074 C237.987772,53.4639082 237.510413,50.8455395 237.005181,49.0255664 L236.959145,48.8623721 C236.123991,45.9478215 235.460554,42.957545 235.041399,39.9541966 C234.637992,37.0664259 234.469738,34.2201804 234.576465,31.3162506 L234.607264,30.5765147 M241.572238,39.0165461 C241.242774,38.5648945 241.788126,38.053293 242.240182,38.1474998 C244.98867,38.7158802 247.675814,40.3797218 250.142594,41.7251243 L250.406041,41.8679917 C252.375168,42.9299591 254.356464,44.230824 255.390379,46.2939075 C256.5149,48.5361847 256.422259,51.1188101 256.268899,53.5555683 L256.254379,53.7835722 C256.066436,56.7057855 256.036238,59.7420386 255.417872,62.6115142 C255.101478,64.0800582 253.77145,64.4938469 252.634323,64.1467692 C251.281309,68.41943 247.48052,71.5674692 244.704182,74.9390804 C241.164351,79.2374339 241.830492,85.0408423 242.20052,90.2177079 C242.350154,92.3136962 239.743281,92.9095879 238.400633,91.7912767 L235.306431,89.2209991 C234.791143,88.7919851 234.276539,88.3621197 233.763337,87.9306016 C233.32375,87.560686 232.88817,87.1879657 232.456195,86.8105709 L231.810886,86.2407392 C231.524689,85.9847131 230.262267,84.5743159 229.89314,84.5157184 C228.999063,84.3735818 226.874917,86.7301101 226.147949,87.4692172 L226.055844,87.5614372 C224.687506,88.9033204 223.451224,90.3470732 222.299675,91.8782715 C222.087844,92.1595396 221.673647,91.926051 221.825083,91.6010602 C222.856914,89.3905532 224.056703,87.2771072 225.481269,85.298977 L225.769196,84.9051665 C226.717027,83.6277405 227.989365,81.3721867 229.662379,80.9949088 C231.705224,80.5345708 233.745045,82.5833802 235.231363,83.7205024 L235.325478,83.7918136 C236.032633,84.3223465 236.731675,84.8623452 237.429365,85.4059499 C237.356351,81.5515853 237.843112,77.6571039 239.832971,74.3355259 C241.236013,71.9929773 243.338098,70.2580399 245.136858,68.2449897 C247.139337,66.0034092 248.184971,63.2484242 249.997703,60.9139891 C250.231168,60.6137895 250.552971,60.4519701 250.901365,60.4005846 C250.971019,58.5238249 251.247402,56.628439 251.46097,54.7719986 L251.522886,54.2162924 C251.738774,52.1991854 252.248971,49.735385 251.261478,47.8462911 C250.328685,46.0619966 248.188433,44.8025185 246.603547,43.5918857 L245.309461,42.5879792 M152.371292,17.6878598 C151.543799,18.1665564 150.770391,18.7619974 150.068644,19.5061859 C147.859743,21.849636 146.280475,24.7659896 144.743574,27.5714586 C143.916081,29.0823731 143.118334,30.6099654 142.284081,32.117274 C141.921264,32.7731155 141.548081,33.421745 141.170841,34.0694729 C140.996419,34.3678696 140.478109,34.9610568 140.221207,35.3266152 C140.506662,35.7266185 140.801798,36.1204817 141.102856,36.510085 C141.217721,36.6587333 149.141437,45.2912096 151.903461,48.6697215 C156.132869,53.8447841 159.913376,59.3110313 163.145376,65.1617684 C166.310222,70.8912538 168.719686,76.9574495 171.651517,82.7978193 C173.11901,85.7218356 174.757771,88.6251174 176.846785,91.1556289 C176.927461,91.2543431 177.012644,91.3476484 177.095123,91.4450105 C177.892391,89.2909459 179.935321,86.9845946 180.938696,85.6602807 L181.032475,85.5352251 C183.308081,82.4674195 185.711236,79.4920176 188.166672,76.5670998 C190.409376,73.8962549 192.709059,71.2831059 195.064452,68.7130905 L195.950334,67.7513281 C197.591348,65.9785277 199.675855,63.325863 202.078109,62.0592551 C201.820757,61.6003914 201.522841,61.146486 201.180306,60.6984403 C198.929489,57.7569575 195.747786,55.6222235 192.608279,53.6960259 L190.572288,52.4574097 C182.897736,47.7800723 175.342741,42.8859592 168.680024,36.8086817 C165.155067,33.59303 161.678785,30.2245741 158.715855,26.473882 L157.667995,25.1477223 M165.1767,15.3723562 C161.582785,15.673908 157.701771,15.6022388 154.380531,16.7732877 C157.333095,19.5647835 160.13963,22.5789498 163.022785,25.4173236 C163.279236,23.4975786 163.803855,21.6012727 164.24825,19.7293073" id="ðŸ–-Ink" fill="#000000"></path>
            </g>
            <g id="HEAD" transform="translate(54.6161, 0)">
                <path d="M232.47771,107.37319 C230.773144,79.3356285 221.695322,47.5482762 194.978173,33.7823663 C136.078921,10.0918392 58.6385862,69.7513278 54.5386345,130.698159 C53.1093182,151.560679 64.6670804,174.357369 85.7879485,180.157622 C90.4838235,186.392849 97.5854293,190.200786 104.594836,193.505687 C188.081205,236.916082 242.009783,201.628204 232.47771,107.37319 L232.47771,107.37319 Z" id="âœ‹-Skin" fill="#D08B5B"></path>
                <path d="M251.497105,89.9323591 C248.546723,81.7196912 245.429932,73.5701282 242.15123,65.4836703 C238.957981,57.6135725 236.073679,49.5733673 232.108237,42.0762143 C208.424225,-2.70130687 165.355842,-2.70130687 143.09305,3.14943025 C131.547881,-1.83586656 109.923433,-0.429641393 97.9018308,4.06896058 C78.4401028,11.351731 54.7160622,40.0005098 46.6047601,52.8721315 C28.6960306,81.2914785 17.5196592,119.11708 29.415636,151.956934 C30.9704334,156.248977 32.953396,160.224143 35.1859717,164.055068 C33.7795929,165.965347 32.1609305,167.774659 30.3677638,169.552417 C25.0390859,174.836111 19.7104079,179.945814 15.1071822,185.905182 C10.5327406,191.827589 6.74042017,198.12547 3.91731825,205.069276 C-1.40596267,218.16447 -1.66232209,232.992347 5.37541868,245.487593 C11.4983611,256.359687 22.3450632,264.45561 34.5653121,265.227745 C35.192718,265.315191 35.8210235,265.395424 36.4520275,265.45898 C38.0711396,268.131929 40.0455569,270.593025 42.2988213,272.738595 C49.2025356,279.319548 65.6590115,282.695666 75.0453644,282.912026 C75.5266005,283.299672 76.0123341,283.687317 76.4980678,284.070454 C82.2414183,288.600494 88.2681135,293.1711 94.861498,296.393964 C99.3275489,298.580102 105.183338,300.40564 109.842783,298.828015 C111.956624,300.24337 115.424222,299.945875 117.520073,298.787447 C120.965184,296.885282 123.767147,293.45958 125.471712,289.952744 C129.604946,281.438073 128.610991,272.121068 127.549573,263.024929 C126.380214,252.977708 125.255831,242.925979 124.113457,232.878758 C123.218448,225.022183 122.282961,217.03489 119.899268,209.466795 C118.666944,205.545268 117.052329,201.776997 114.965474,198.234101 C115.019444,197.936606 115.010449,197.639111 114.924996,197.359646 C114.241371,195.13294 112.829145,193.965497 111.156063,192.450976 C110.940181,192.257154 110.724299,192.058824 110.512915,191.855986 C109.676374,190.900396 108.781365,190.012418 107.82339,189.259665 C107.454592,188.885542 107.090292,188.506912 106.725992,188.128282 C103.699152,184.950494 100.83872,181.610435 98.2976137,178.031479 C95.8329652,174.560702 93.606686,170.936671 91.4883477,167.245027 C89.334029,163.490278 87.9083108,159.347884 85.7584897,155.62018 C85.5740908,155.300148 85.1063473,155.237043 84.8454904,155.502985 C84.1798554,156.192633 83.7525897,156.958908 83.8335453,157.765751 L83.5007278,157.815334 C83.3747968,156.598308 82.2549109,155.606658 80.7347445,155.8726 C78.4589925,156.269261 76.5880184,156.418008 74.6180987,155.660748 C74.9644088,153.357415 75.2837337,151.049574 75.598561,148.737225 C76.1742453,144.482144 76.7094518,140.21354 77.1682003,135.944936 C78.2790911,136.210878 79.3809869,136.594016 80.460395,137.080826 C81.9985515,137.770474 83.4512549,138.699019 84.6925742,139.839417 C85.9159034,140.966293 86.7614397,142.485321 88.2546209,143.269626 C89.9726788,144.166619 92.0460418,142.683651 91.5423181,140.73641 C90.5213779,136.801361 84.7420471,134.54761 81.1665078,133.803873 C79.9386811,133.546945 78.6838691,133.438765 77.4290572,133.46581 C77.7124019,130.725249 77.9642638,127.984688 78.1711503,125.239619 C78.270096,123.941459 78.3600467,122.643298 78.4454999,121.340631 C81.2249757,120.497728 84.202343,120.245308 87.0942572,120.641968 C88.0477344,121.403736 89.0012115,122.156488 89.9232059,122.918256 C92.8511004,125.343292 95.7655022,127.78185 98.6439238,130.265484 C98.9047808,130.486351 99.1611402,130.707219 99.4219972,130.932594 C101.13106,132.406547 103.262891,130.946116 102.975049,128.859143 C100.627336,111.757682 111.079605,98.1540421 123.317394,87.6155033 C136.863965,75.9455816 161.49246,74.5867031 177.602626,54.3726788 C185.022252,55.8861135 201.587973,60.3811785 208.424225,71.2983474 C217.994976,86.5968079 216.744662,100.30412 217.473262,117.658002 C218.201863,135.025405 220.054847,153.141055 216.119505,170.265053 C212.489995,186.054831 202.662884,199.545784 187.416244,205.748106 C187.038452,205.901361 186.656161,206.050109 186.273871,206.194349 C178.389694,209.173807 169.785912,210.01671 161.49246,208.4481 C152.312994,206.708204 144.649196,202.498197 137.012384,197.319078 C136.571626,197.02609 135.928478,197.630096 136.261296,198.071831 C146.326776,211.441081 166.097935,215.908015 181.780835,212.378641 C182.513933,212.211863 183.242533,212.031563 183.966636,211.833233 C180.45856,221.943559 181.164673,233.041028 185.734167,242.885412 C188.48216,248.808269 192.673861,253.933298 197.778562,257.976527 C203.404977,262.429939 210.385149,266.026925 214.289009,272.27883 C217.864548,278.007865 216.80313,284.444577 210.681986,287.753083 C209.139332,288.591479 208.545658,291.300487 210.074819,292.490467 C210.659499,292.941218 211.244178,293.400983 211.84235,293.851733 C215.269471,296.443546 224.682809,301.311648 226.207473,301.491948 C239.745049,303.101126 248.848058,293.139548 254.681359,281.388491 C261.531103,267.595536 259.750079,250.787062 252.203218,237.652203 C246.149537,227.113664 234.226576,216.72838 238.966976,203.390683 C240.658049,198.626253 244.116652,194.564994 247.47631,190.895888 C251.308209,186.717434 255.427949,182.804923 259.102435,178.477721 C262.754432,174.182072 265.992656,169.507793 267.800665,164.116821 C270.440717,156.237708 269.127437,147.71853 267.144025,139.85294 C262.893855,122.967839 257.375382,106.308113 251.497105,89.9323591 Z" id="ðŸ–-Ink" fill="#000000"></path>
            </g>
            <g id="FACE" transform="translate(182.986, 98.7852)" fill="#000000">
                <path d="M62.1393479,74.7870501 C59.0804535,75.9896843 55.4664552,76.2737522 52.3091211,75.2490852 C49.2901259,74.2690681 46.5487568,72.0880231 44.8900009,69.3450586 C43.4125814,66.901957 42.7955814,64.0027021 43.6687405,61.1124128 C43.7105118,60.974069 43.8460218,60.8855966 43.9767459,60.8510865 C44.6910922,61.5015053 45.1324339,62.1474975 45.5733895,62.7903341 C46.3168015,63.8740993 47.0618642,64.9467408 48.0846248,65.8733157 C49.5726944,67.221296 51.5775857,68.3161047 53.5673648,68.6771624 C55.5155769,69.0314646 57.5095121,68.7183542 59.2539567,67.7857449 C60.3148327,67.2190107 61.1725951,66.4611439 62.0219722,65.6999111 C62.9468732,64.8709921 63.8571203,64.0294548 65.1309377,63.5613845 C66.1517237,63.1862237 67.2239756,63.5027937 68.0477017,64.1303545 C68.9330401,64.8048552 69.5696845,65.8606692 69.5343898,66.9644778 C69.4797277,68.6746438 68.7312011,70.1012088 67.6451114,71.2781768 C66.1767875,72.8693624 64.1006727,74.0158503 62.1393479,74.7870501 Z M58.5077489,32.168571 C61.9111872,34.2375349 67.0969818,39.0619548 63.4356656,44.1911681 C59.1259463,48.713765 52.9209235,43.5282988 49.8631958,41.1831144 C47.0279273,39.3655833 43.8423444,44.0401371 46.472908,46.1624112 C68.5681126,62.5224948 77.5348146,32.7095762 60.2291604,29.7359768 C58.3237458,29.4082989 57.6160699,31.5285144 58.5077489,32.168571 Z M22.7099783,3.50137697 C27.3486261,3.27960789 31.4365135,5.36297514 35.8570205,6.30955048 C39.9422036,7.1849073 43.9669923,6.65933261 47.9399501,5.54597971 C54.3877247,3.7389223 57.0531895,13.6103509 50.6933022,15.5341526 C46.0618656,16.9350841 41.1852459,17.0324461 36.4325698,16.3103444 C32.2108233,15.6684761 28.6718937,13.6130554 24.6466543,12.4163137 C21.1922265,11.3897983 17.1285159,11.8164176 13.4804482,12.2997038 L12.0643445,12.4902367 C9.95955572,12.7737586 7.84349938,13.0581819 5.75944305,13.4697168 C3.95121769,13.8271617 2.14614727,14.4812002 0.300513468,14.5569262 C0.0909360029,14.5659412 -0.0866414619,14.2936881 0.0454148761,14.1120358 C2.1893648,11.1683768 6.32146654,8.84570151 9.60834283,7.2965433 L9.83110502,7.1921193 C13.8883445,5.30032087 18.1925698,3.71683555 22.7099783,3.50137697 Z M21.0105198,25.207513 L21.0099386,25.1059652 C21.0162484,22.2316277 22.6901684,15.6688889 26.8276828,15.6688889 C29.4124613,15.6688889 30.9817525,20.1352842 31.2534215,24.7394965 L31.2628573,24.9272221 C31.3828252,27.7897225 30.5973757,34.0466497 26.8276828,34.0466497 C23.0180964,34.0466497 21.0496893,28.1205604 21.0105198,25.207513 L21.0105198,25.207513 Z M81.9255804,25.207513 L81.9261617,25.1059652 C81.9198518,22.2316277 80.2459318,15.6688889 76.1084174,15.6688889 C73.5882584,15.6688889 72.033447,19.914756 71.7054826,24.3945066 L71.6826788,24.7394965 C71.519481,27.5053526 72.2540123,34.0466497 76.1084174,34.0466497 C79.9180039,34.0466497 81.8864109,28.1205604 81.9255804,25.207513 L81.9255804,25.207513 Z M81.8621535,0.000523071213 L82.1580909,0.0070264788 C86.9932459,0.174705539 91.966767,3.03922283 93.2575839,7.85098082 C93.3242881,8.10069641 93.0164571,8.26882622 92.8339219,8.09754116 C88.8582053,4.37492304 83.5113325,7.93198707 79.5302402,9.79646557 L78.067974,10.4720523 C72.9357007,12.8600252 67.0984936,15.6675062 61.4000064,13.8878778 C58.6935276,13.0427212 56.9745416,10.2615927 57.746598,7.45251767 C58.4334309,4.95311475 61.4500313,2.85261638 64.0628264,3.75475219 L64.1813022,3.79783535 C66.3041191,4.60993689 68.9142599,3.78713003 71.1066647,2.97590495 L72.9076392,2.29953557 C75.8036499,1.20052091 78.7130515,-0.0290462236 81.8621535,0.000523071213 L81.8621535,0.000523071213 Z" id="ðŸ–-Ink"></path>
            </g>
            <g id="ACCESORIES" transform="translate(108.1691, 98.3341)" fill="#000000">
                <path d="M171.327695,40.260464 C168.293104,44.3374993 162.667414,45.6361105 157.478456,45.1876141 C146.287019,44.1103212 142.764766,31.3987158 142.397892,21.518723 C149.902569,23.6300368 141.763301,8.67685086 167.416935,7.03251427 C176.460315,6.27885999 173.967019,11.7410505 177.962512,15.7319924 C177.880484,24.1078319 176.486456,33.2089285 171.327695,40.260464 M118.022456,30.6360466 C111.415132,61.5813975 75.2334981,54.2206473 71.4327094,26.3255227 C74.9423432,23.8481998 74.0179488,17.7310694 78.3780615,15.5147308 C85.2882587,11.0991822 93.9264559,11.2880466 101.773667,11.3917191 C111.80409,12.0809161 114.662456,16.2363818 119.814907,20.770027 C119.567019,23.7981666 118.852202,27.3870394 118.022456,30.6360466 M185.66054,1.90748491 C185.289611,1.84573214 184.918231,1.78758537 184.54685,1.7330446 C184.257047,1.56852079 183.916766,1.44185999 183.521047,1.36568322 C182.617385,1.13625138 181.720033,0.981644076 180.824033,0.898255296 C167.96454,-1.9960115 138.214907,2.11347774 136.987188,13.0883427 C132.89209,14.455468 129.348653,13.2312305 124.602287,13.3529331 C120.989442,-1.74945116 58.5294981,0.382146359 55.5255545,9.48729965 C55.5142869,9.4841444 55.5030193,9.4814399 55.4913009,9.4778339 C52.6049911,8.58444708 48.3498925,8.79990565 45.0462305,8.6583701 C37.9922587,8.51052405 30.9301742,9.13932053 24.0285404,10.6272468 C11.1045967,12.6813153 -6.53371314,15.0860674 2.45468122,31.2265293 C2.45648404,31.2292338 2.45783615,31.232389 2.46008967,31.2350935 L2.46144179,31.2337413 C4.01051221,32.8217341 6.63946996,31.5429559 6.73727277,29.3933284 C3.71530094,21.7468026 10.5407657,20.8286245 15.7923714,18.6312175 C28.859639,13.9362038 42.1635263,13.2853205 55.6783432,14.7376376 C56.6951319,15.93483 58.2378925,16.9787674 59.8685404,17.5250766 C68.9047094,19.0251731 64.1425685,25.7287295 69.8543432,26.7037021 C68.8051038,50.0714921 97.1728784,62.8268202 113.609611,47.4657054 C120.172315,41.0488261 121.736709,31.5429559 123.258287,22.974646 C124.062794,22.7938952 124.574343,22.3539631 124.87316,21.7715938 C126.808033,19.8396786 128.023583,18.0556095 131.849611,17.5250766 C135.675639,16.9949944 138.620991,18.0592155 139.019414,18.3851079 C139.119921,18.5874947 139.227639,18.7903323 139.352935,18.9931698 C139.527808,19.2956232 139.76578,19.5367745 140.036202,19.7265404 C136.257949,42.9960668 154.320822,57.7121581 172.555864,45.6433225 C180.479245,38.189267 182.153611,26.7771744 182.484428,16.5911222 C183.558456,15.9429435 184.238569,14.6867028 183.866738,13.1072742 C183.354287,10.9301509 184.555864,9.04511374 186.469554,8.0985384 C188.95609,6.86934271 188.516202,2.38032183 185.66054,1.90748491" id="ðŸ–-Ink"></path>
            </g>
        </g>
    </g>
</svg>